<svg width="256" height="256" viewBox="0 0 256 256" fill="none" xmlns="http://www.w3.org/2000/svg">
<g clip-path="url(#clip0_176_23)">
<path d="M10.0004 40.006L40.1039 10.0001L216.814 10.0001L246 39.9229L246 216.077L216.814 246L40.1039 246L10.0004 215.994L10.0004 40.006Z" fill="black" stroke="url(#paint0_radial_176_23)" stroke-width="20" stroke-linejoin="bevel"/>
<path d="M55 98.4409L100.441 53H159.559L205 98.4409V157.559L159.559 203H100.441L55 157.559V98.4409Z" fill="url(#paint1_linear_176_23)"/>
<path d="M55 98.4409L100.441 53H159.559L205 98.4409V157.559L159.559 203H100.441L55 157.559V98.4409Z" fill="url(#paint2_radial_176_23)" fill-opacity="0.45"/>
<path d="M55 98.4409L100.441 53H159.559L205 98.4409V157.559L159.559 203H100.441L55 157.559V98.4409Z" fill="url(#paint3_radial_176_23)"/>
<path d="M100.441 53H159.559L205 98.4409V157.559L190.5 172V144L174.5 128H153.106H141.803L130.5 116.75V105.5V83L115 67.5H86L100.441 53Z" fill="url(#paint4_linear_176_23)"/>
<path d="M100.441 53H159.559L205 98.4409V157.559L190.5 172V144L174.5 128H153.106H141.803L130.5 116.75V105.5V83L115 67.5H86L100.441 53Z" fill="url(#paint5_radial_176_23)"/>
<path d="M53.7803 135.22L64.9998 124H106.78L118 135.22V176.78L106.78 188H64.9998L53.7803 176.78V135.22Z" fill="url(#paint6_radial_176_23)"/>
<path d="M72.914 176V138.2H81.014V176H72.914ZM76.64 160.988V154.022H96.188V160.988H76.64ZM76.64 145.49V138.2H98.456V145.49H76.64Z" fill="white"/>
</g>
<defs>
<radialGradient id="paint0_radial_176_23" cx="0" cy="0" r="1" gradientUnits="userSpaceOnUse" gradientTransform="translate(9.5 272) rotate(-52.7412) scale(456.711)">
<stop offset="0.0721531" stop-color="#F0567C"/>
<stop offset="0.618013" stop-color="#DC4532"/>
<stop offset="0.742606" stop-color="#FF764C"/>
</radialGradient>
<linearGradient id="paint1_linear_176_23" x1="217" y1="132.5" x2="75" y2="181.5" gradientUnits="userSpaceOnUse">
<stop offset="0.416041" stop-color="#BB3224"/>
<stop offset="0.420229" stop-color="#E84F37"/>
<stop offset="0.702186" stop-color="#E84F37"/>
<stop offset="0.702619" stop-color="#EF576D"/>
</linearGradient>
<radialGradient id="paint2_radial_176_23" cx="0" cy="0" r="1" gradientUnits="userSpaceOnUse" gradientTransform="translate(-41 145.5) rotate(-13.1426) scale(217.702)">
<stop offset="0.461658" stop-color="#F772C4"/>
<stop offset="0.686691" stop-color="#F0555A" stop-opacity="0.48"/>
</radialGradient>
<radialGradient id="paint3_radial_176_23" cx="0" cy="0" r="1" gradientUnits="userSpaceOnUse" gradientTransform="translate(166.5 91) rotate(135.205) scale(98.642 77.8753)">
<stop stop-color="#670C12"/>
<stop offset="1" stop-color="#B72D36" stop-opacity="0"/>
</radialGradient>
<linearGradient id="paint4_linear_176_23" x1="125.5" y1="130" x2="188" y2="71" gradientUnits="userSpaceOnUse">
<stop offset="0.612795" stop-color="#FF944C"/>
<stop offset="0.625139" stop-color="#FEAF54"/>
<stop offset="0.855821" stop-color="#FEAF54"/>
<stop offset="0.919795" stop-color="#FDC175"/>
</linearGradient>
<radialGradient id="paint5_radial_176_23" cx="0" cy="0" r="1" gradientUnits="userSpaceOnUse" gradientTransform="translate(104 150) rotate(-43.8249) scale(137.915 137.915)">
<stop offset="0.238163" stop-color="#F772C4"/>
<stop offset="0.552954" stop-color="#F0555A" stop-opacity="0"/>
</radialGradient>
<radialGradient id="paint6_radial_176_23" cx="0" cy="0" r="1" gradientUnits="userSpaceOnUse" gradientTransform="translate(111.5 179.5) rotate(-134.741) scale(78.1361 78.4042)">
<stop stop-color="#9E1920"/>
<stop offset="0.307746" stop-color="#AE0B21"/>
<stop offset="1" stop-color="#F4545E"/>
</radialGradient>
<clipPath id="clip0_176_23">
<rect width="256" height="256" fill="white"/>
</clipPath>
</defs>
</svg>
