<svg width="1024" height="953" viewBox="0 0 1024 953" fill="none" xmlns="http://www.w3.org/2000/svg">
<g clip-path="url(#clip0_1_12)">
<rect x="238" width="786" height="953" rx="44" fill="url(#paint0_linear_1_12)"/>
<rect x="238" width="786" height="953" rx="44" fill="url(#paint1_linear_1_12)"/>
<rect x="238" width="786" height="953" rx="44" fill="url(#paint2_linear_1_12)"/>
<rect x="238" width="786" height="953" rx="44" fill="url(#paint3_linear_1_12)"/>
<rect x="238" width="786" height="953" rx="44" fill="url(#paint4_linear_1_12)"/>
<path opacity="0.1" d="M527.884 190.512H238.14V785.86H527.884C551.959 785.782 571.457 766.285 571.535 742.209V234.163C571.457 210.087 551.959 190.59 527.884 190.512Z" fill="black"/>
<path opacity="0.2" d="M504.07 214.326H238.14V809.674H504.07C528.145 809.596 547.643 790.099 547.721 766.023V257.977C547.643 233.901 528.145 214.404 504.07 214.326Z" fill="black"/>
<path opacity="0.2" d="M504.07 214.326H238.14V762.047H504.07C528.145 761.968 547.643 742.471 547.721 718.395V257.977C547.643 233.901 528.145 214.404 504.07 214.326Z" fill="black"/>
<path opacity="0.2" d="M480.256 214.326H238.14V762.047H480.256C504.331 761.968 523.829 742.471 523.907 718.395V257.977C523.829 233.901 504.331 214.404 480.256 214.326Z" fill="black"/>
<path d="M43.6511 214.326H480.256C504.364 214.326 523.907 233.869 523.907 257.977V694.582C523.907 718.69 504.364 738.233 480.256 738.233H43.6511C19.5432 738.233 0 718.69 0 694.582V257.977C0 233.869 19.5432 214.326 43.6511 214.326Z" fill="url(#paint5_linear_1_12)"/>
<path d="M193 381.104V453.885H330.75V335H376.75V453.885V499.89V618.767H330.75V499.89H193V618.767H147V381.104V335H193V381.104Z" fill="white"/>
</g>
<defs>
<linearGradient id="paint0_linear_1_12" x1="1024" y1="476.5" x2="238" y2="476.5" gradientUnits="userSpaceOnUse">
<stop offset="0.25" stop-color="#00C3BC"/>
<stop offset="0.25" stop-color="#666666" stop-opacity="0"/>
</linearGradient>
<linearGradient id="paint1_linear_1_12" x1="1024" y1="476.5" x2="238" y2="476.5" gradientUnits="userSpaceOnUse">
<stop offset="0.25" stop-color="#666666" stop-opacity="0"/>
<stop offset="0.25" stop-color="#00B0BC"/>
</linearGradient>
<linearGradient id="paint2_linear_1_12" x1="631" y1="0" x2="631" y2="953" gradientUnits="userSpaceOnUse">
<stop stop-opacity="0"/>
<stop offset="0.25" stop-opacity="0"/>
<stop offset="0.25" stop-color="#009FBE"/>
</linearGradient>
<linearGradient id="paint3_linear_1_12" x1="1024" y1="476.5" x2="238" y2="476.5" gradientUnits="userSpaceOnUse">
<stop offset="0.5" stop-opacity="0"/>
<stop offset="0.5" stop-color="#0087B3"/>
</linearGradient>
<linearGradient id="paint4_linear_1_12" x1="631" y1="0" x2="631" y2="953" gradientUnits="userSpaceOnUse">
<stop offset="0.5" stop-color="#005B84" stop-opacity="0"/>
<stop offset="0.5" stop-color="#0075A9"/>
</linearGradient>
<linearGradient id="paint5_linear_1_12" x1="396.5" y1="188.5" x2="88.0005" y2="772" gradientUnits="userSpaceOnUse">
<stop stop-color="#00C5BE"/>
<stop offset="0.5" stop-color="#00A7C9"/>
<stop offset="1" stop-color="#0079AF"/>
</linearGradient>
<clipPath id="clip0_1_12">
<rect width="1024" height="952.558" fill="white"/>
</clipPath>
</defs>
</svg>
