<svg width="96" height="96" viewBox="0 0 96 96" fill="none" xmlns="http://www.w3.org/2000/svg">
<rect x="19" y="23" width="18" height="18" fill="#ADADAD"/>
<rect x="1" y="23" width="18" height="18" fill="#D5D5D5"/>
<rect x="19" y="41" width="18" height="18" fill="#7F7F7F"/>
<rect x="1" y="59" width="18" height="18" fill="#7F7F7F"/>
<rect x="19" y="77" width="18" height="18" fill="#303030"/>
<rect x="1" y="41" width="18" height="18" fill="#ADADAD"/>
<rect x="19" y="59" width="18" height="18" fill="#464646"/>
<rect x="1" y="77" width="18" height="18" fill="#464646"/>
<rect x="2.5" y="24.5" width="33" height="69" stroke="#EDEBE8" stroke-width="3"/>
<mask id="path-10-inside-1_321_79" fill="white">
<path d="M63 29L66 26H87L90 29V67L87 64H66L63 67V29Z"/>
</mask>
<path d="M63 29L66 26H87L90 29V67L87 64H66L63 67V29Z" fill="#4C4C4C"/>
<path d="M63 29L60.8787 26.8787L60 27.7574V29H63ZM90 29H93V27.7574L92.1213 26.8787L90 29ZM90 67L87.8787 69.1213L93 67H90ZM63 67H60L65.1213 69.1213L63 67ZM87 26L89.1213 23.8787L88.2426 23H87V26ZM66 26V23H64.7574L63.8787 23.8787L66 26ZM87 64L89.1213 61.8787L88.2426 61H87V64ZM66 64V61H64.7574L63.8787 61.8787L66 64ZM90 29H87V67H90H93V29H90ZM63 67H66V29H63H60V67H63ZM87 26L84.8787 28.1213L87.8787 31.1213L90 29L92.1213 26.8787L89.1213 23.8787L87 26ZM63 29L65.1213 31.1213L68.1213 28.1213L66 26L63.8787 23.8787L60.8787 26.8787L63 29ZM66 26V29H87V26V23H66V26ZM90 67L92.1213 64.8787L89.1213 61.8787L87 64L84.8787 66.1213L87.8787 69.1213L90 67ZM87 64V61H66V64V67H87V64ZM66 64L63.8787 61.8787L60.8787 64.8787L63 67L65.1213 69.1213L68.1213 66.1213L66 64Z" fill="#EDEBE8" mask="url(#path-10-inside-1_321_79)"/>
<rect x="70" y="33" width="4" height="4" fill="#D9D9D9"/>
<rect x="70" y="41" width="4" height="4" fill="#D9D9D9"/>
<rect x="70" y="49" width="4" height="4" fill="#D9D9D9"/>
<rect x="79" y="33" width="4" height="4" fill="#D9D9D9"/>
<rect x="79" y="41" width="4" height="4" fill="#D9D9D9"/>
<rect x="79" y="49" width="4" height="4" fill="#D9D9D9"/>
<path d="M41 37H37V57H41V53H59V57H63V37H59V41H41V37Z" fill="#EDEBE8"/>
<path d="M9 19V23H29V19H25V4H29V0H9V4H13V19H9Z" fill="#EDEBE8"/>
<path d="M77 63V79.5L68.5 88H58.5L49.5 79V0" stroke="#EDEBE8" stroke-width="4"/>
</svg>
