<svg width="7680" height="4320" viewBox="0 0 7680 4320" fill="none" xmlns="http://www.w3.org/2000/svg">
<g clip-path="url(#clip0_26_2)">
<rect width="7680" height="4320" transform="matrix(1 0 0 -1 0 4320)" fill="#080611"/>
<path d="M343.75 2853C376.749 2853 403.5 2879.75 403.5 2912.75C403.5 2945.75 376.749 2972.5 343.75 2972.5H277.25C246.736 2972.5 222 2997.24 222 3027.75C222 3058.26 246.736 3083 277.25 3083H978.5C1009.01 3083 1033.75 3058.26 1033.75 3027.75V3017.38C1033.75 2992.59 1013.66 2972.5 988.875 2972.5C964.091 2972.5 944 2952.41 944 2927.62V2912.75C944 2879.75 970.751 2853 1003.75 2853H1230C1258.17 2853 1281 2830.17 1281 2802C1281 2773.83 1258.17 2751 1230 2751H917C890.49 2751 869 2729.51 869 2703C869 2676.49 890.49 2655 917 2655H1526C1554.72 2655 1578 2631.72 1578 2603C1578 2574.28 1554.72 2551 1526 2551H1023.25C993.841 2551 970 2527.16 970 2497.75C970 2468.34 993.841 2444.5 1023.25 2444.5H1329C1359.1 2444.5 1383.5 2420.1 1383.5 2390C1383.5 2359.9 1359.1 2335.5 1329 2335.5H854.25C824.841 2335.5 801 2311.66 801 2282.25C801 2252.84 824.841 2229 854.25 2229H1478.75C1507.88 2229 1531.5 2205.38 1531.5 2176.25C1531.5 2147.12 1507.88 2123.5 1478.75 2123.5H1198.75C1169.06 2123.5 1145 2099.44 1145 2069.75C1145 2040.06 1169.06 2016 1198.75 2016H1563.75C1596.75 2016 1623.5 1989.25 1623.5 1956.25C1623.5 1923.25 1596.75 1896.5 1563.75 1896.5H1134C1100.17 1896.5 1072.75 1869.08 1072.75 1835.25C1072.75 1801.42 1100.17 1774 1134 1774H1796.5C1827.98 1774 1853.5 1748.48 1853.5 1717C1853.5 1685.52 1827.98 1660 1796.5 1660H1001.88C969.911 1660 944 1634.09 944 1602.12C944 1570.16 969.911 1544.25 1001.88 1544.25H1129.38C1160.65 1544.25 1186 1518.9 1186 1487.62C1186 1456.35 1160.65 1431 1129.38 1431H597H481.125C449.852 1431 424.5 1456.35 424.5 1487.62C424.5 1518.9 449.852 1544.25 481.125 1544.25H520.125C552.089 1544.25 578 1570.16 578 1602.12C578 1634.09 552.089 1660 520.125 1660H395.5C364.02 1660 338.5 1685.52 338.5 1717C338.5 1748.48 364.02 1774 395.5 1774H558.25C592.077 1774 619.5 1801.42 619.5 1835.25C619.5 1869.08 592.077 1896.5 558.25 1896.5H97.25C64.251 1896.5 37.5 1923.25 37.5 1956.25C37.5 1989.25 64.251 2016 97.25 2016H401.75C431.435 2016 455.5 2040.06 455.5 2069.75C455.5 2099.44 431.435 2123.5 401.75 2123.5H256.25C227.117 2123.5 203.5 2147.12 203.5 2176.25C203.5 2205.38 227.117 2229 256.25 2229H438.75C468.159 2229 492 2252.84 492 2282.25C492 2311.66 468.159 2335.5 438.75 2335.5H24.5C-5.59953 2335.5 -30 2359.9 -30 2390C-30 2420.1 -5.59952 2444.5 24.5 2444.5H402.25C431.659 2444.5 455.5 2468.34 455.5 2497.75C455.5 2527.16 431.659 2551 402.25 2551H255.5C226.781 2551 203.5 2574.28 203.5 2603C203.5 2631.72 226.781 2655 255.5 2655H483C509.51 2655 531 2676.49 531 2703C531 2729.51 509.51 2751 483 2751H-21C-49.1665 2751 -72 2773.83 -72 2802C-72 2830.17 -49.1665 2853 -21 2853H343.75Z" fill="url(#paint0_linear_26_2)"/>
<path d="M2671.75 3872C2638.75 3872 2612 3898.75 2612 3931.75C2612 3964.75 2638.75 3991.5 2671.75 3991.5H2738.25C2768.76 3991.5 2793.5 4016.24 2793.5 4046.75C2793.5 4077.26 2768.76 4102 2738.25 4102H1947.25C1916.74 4102 1892 4077.26 1892 4046.75C1892 4016.24 1916.74 3991.5 1947.25 3991.5H2011.75C2044.75 3991.5 2071.5 3964.75 2071.5 3931.75C2071.5 3898.75 2044.75 3872 2011.75 3872H1645.5C1617.33 3872 1594.5 3849.17 1594.5 3821C1594.5 3792.83 1617.33 3770 1645.5 3770H2098.5C2125.01 3770 2146.5 3748.51 2146.5 3722C2146.5 3695.49 2125.01 3674 2098.5 3674H1489.5C1460.78 3674 1437.5 3650.72 1437.5 3622C1437.5 3593.28 1460.78 3570 1489.5 3570H1992.25C2021.66 3570 2045.5 3546.16 2045.5 3516.75C2045.5 3487.34 2021.66 3463.5 1992.25 3463.5H1686.5C1656.4 3463.5 1632 3439.1 1632 3409C1632 3378.9 1656.4 3354.5 1686.5 3354.5H2161.25C2190.66 3354.5 2214.5 3330.66 2214.5 3301.25C2214.5 3271.84 2190.66 3248 2161.25 3248H1536.75C1507.62 3248 1484 3224.38 1484 3195.25C1484 3166.12 1507.62 3142.5 1536.75 3142.5H1816.75C1846.44 3142.5 1870.5 3118.44 1870.5 3088.75C1870.5 3059.06 1846.44 3035 1816.75 3035H1654.25C1621.25 3035 1594.5 3008.25 1594.5 2975.25C1594.5 2942.25 1621.25 2915.5 1654.25 2915.5H2010.25C2044.08 2915.5 2071.5 2888.08 2071.5 2854.25C2071.5 2820.42 2044.08 2793 2010.25 2793H1471C1439.52 2793 1414 2767.48 1414 2736C1414 2704.52 1439.52 2679 1471 2679H1884.88C1916.84 2679 1942.75 2653.09 1942.75 2621.12V2619.88C1942.75 2588.6 1917.4 2563.25 1886.12 2563.25C1854.85 2563.25 1829.5 2537.9 1829.5 2506.62C1829.5 2475.35 1854.85 2450 1886.12 2450H2418.5H2534.38C2565.65 2450 2591 2475.35 2591 2506.62C2591 2537.9 2565.65 2563.25 2534.38 2563.25H2495.38C2463.41 2563.25 2437.5 2589.16 2437.5 2621.12C2437.5 2653.09 2411.59 2679 2379.62 2679H2312C2280.52 2679 2255 2704.52 2255 2736C2255 2767.48 2280.52 2793 2312 2793H2334.75C2368.58 2793 2396 2820.42 2396 2854.25C2396 2888.08 2423.42 2915.5 2457.25 2915.5H2918.25C2951.25 2915.5 2978 2942.25 2978 2975.25C2978 3008.25 2951.25 3035 2918.25 3035H2613.75C2584.06 3035 2560 3059.06 2560 3088.75C2560 3118.44 2584.06 3142.5 2613.75 3142.5H2759.25C2788.38 3142.5 2812 3166.12 2812 3195.25C2812 3224.38 2788.38 3248 2759.25 3248H2576.75C2547.34 3248 2523.5 3271.84 2523.5 3301.25C2523.5 3330.66 2547.34 3354.5 2576.75 3354.5H2991C3021.1 3354.5 3045.5 3378.9 3045.5 3409C3045.5 3439.1 3021.1 3463.5 2991 3463.5H2613.25C2583.84 3463.5 2560 3487.34 2560 3516.75C2560 3546.16 2583.84 3570 2613.25 3570H2760C2788.72 3570 2812 3593.28 2812 3622C2812 3650.72 2788.72 3674 2760 3674H2532.5C2505.99 3674 2484.5 3695.49 2484.5 3722C2484.5 3748.51 2505.99 3770 2532.5 3770H3036.5C3064.67 3770 3087.5 3792.83 3087.5 3821C3087.5 3849.17 3064.67 3872 3036.5 3872H2671.75Z" fill="url(#paint1_linear_26_2)"/>
<path d="M923.75 4622C890.751 4622 864 4648.75 864 4681.75C864 4714.75 890.751 4741.5 923.75 4741.5H990.25C1020.76 4741.5 1045.5 4766.24 1045.5 4796.75C1045.5 4827.26 1020.76 4852 990.25 4852H199.25C168.736 4852 144 4827.26 144 4796.75C144 4766.24 168.736 4741.5 199.25 4741.5H263.75C296.749 4741.5 323.5 4714.75 323.5 4681.75C323.5 4648.75 296.749 4622 263.75 4622H-102.5C-130.667 4622 -153.5 4599.17 -153.5 4571C-153.5 4542.83 -130.667 4520 -102.5 4520H350.5C377.01 4520 398.5 4498.51 398.5 4472C398.5 4445.49 377.01 4424 350.5 4424H-258.5C-287.219 4424 -310.5 4400.72 -310.5 4372C-310.5 4343.28 -287.219 4320 -258.5 4320H244.25C273.659 4320 297.5 4296.16 297.5 4266.75C297.5 4237.34 273.659 4213.5 244.25 4213.5H-61.5C-91.5995 4213.5 -116 4189.1 -116 4159C-116 4128.9 -91.5995 4104.5 -61.5 4104.5H413.25C442.659 4104.5 466.5 4080.66 466.5 4051.25C466.5 4021.84 442.659 3998 413.25 3998H-211.25C-240.383 3998 -264 3974.38 -264 3945.25C-264 3916.12 -240.383 3892.5 -211.25 3892.5H68.75C98.4353 3892.5 122.5 3868.44 122.5 3838.75C122.5 3809.06 98.4353 3785 68.75 3785H-93.75C-126.749 3785 -153.5 3758.25 -153.5 3725.25C-153.5 3692.25 -126.749 3665.5 -93.75 3665.5H262.25C296.077 3665.5 323.5 3638.08 323.5 3604.25C323.5 3570.42 296.077 3543 262.25 3543H-277C-308.48 3543 -334 3517.48 -334 3486C-334 3454.52 -308.48 3429 -277 3429H136.875C168.839 3429 194.75 3403.09 194.75 3371.12V3369.88C194.75 3338.6 169.398 3313.25 138.125 3313.25C106.852 3313.25 81.5 3287.9 81.5 3256.62C81.5 3225.35 106.852 3200 138.125 3200H670.5H786.375C817.648 3200 843 3225.35 843 3256.62C843 3287.9 817.648 3313.25 786.375 3313.25H747.375C715.411 3313.25 689.5 3339.16 689.5 3371.12C689.5 3403.09 715.411 3429 747.375 3429H872C903.48 3429 929 3454.52 929 3486C929 3517.48 903.48 3543 872 3543H709.25C675.423 3543 648 3570.42 648 3604.25C648 3638.08 675.423 3665.5 709.25 3665.5H1170.25C1203.25 3665.5 1230 3692.25 1230 3725.25C1230 3758.25 1203.25 3785 1170.25 3785H865.75C836.065 3785 812 3809.06 812 3838.75C812 3868.44 836.065 3892.5 865.75 3892.5H1011.25C1040.38 3892.5 1064 3916.12 1064 3945.25C1064 3974.38 1040.38 3998 1011.25 3998H828.75C799.341 3998 775.5 4021.84 775.5 4051.25C775.5 4080.66 799.341 4104.5 828.75 4104.5H1243C1273.1 4104.5 1297.5 4128.9 1297.5 4159C1297.5 4189.1 1273.1 4213.5 1243 4213.5H865.25C835.841 4213.5 812 4237.34 812 4266.75C812 4296.16 835.841 4320 865.25 4320H1012C1040.72 4320 1064 4343.28 1064 4372C1064 4400.72 1040.72 4424 1012 4424H784.5C757.99 4424 736.5 4445.49 736.5 4472C736.5 4498.51 757.99 4520 784.5 4520H1288.5C1316.67 4520 1339.5 4542.83 1339.5 4571C1339.5 4599.17 1316.67 4622 1288.5 4622H923.75Z" fill="url(#paint2_linear_26_2)"/>
<path d="M4419.75 3222C4386.75 3222 4360 3195.25 4360 3162.25C4360 3129.25 4386.75 3102.5 4419.75 3102.5H4486.25C4516.76 3102.5 4541.5 3077.76 4541.5 3047.25C4541.5 3016.74 4516.76 2992 4486.25 2992H3695.25C3664.74 2992 3640 3016.74 3640 3047.25C3640 3077.76 3664.74 3102.5 3695.25 3102.5H3759.75C3792.75 3102.5 3819.5 3129.25 3819.5 3162.25C3819.5 3195.25 3792.75 3222 3759.75 3222H3393.5C3365.33 3222 3342.5 3244.83 3342.5 3273C3342.5 3301.17 3365.33 3324 3393.5 3324H3846.5C3873.01 3324 3894.5 3345.49 3894.5 3372C3894.5 3398.51 3873.01 3420 3846.5 3420H3237.5C3208.78 3420 3185.5 3443.28 3185.5 3472C3185.5 3500.72 3208.78 3524 3237.5 3524H3740.25C3769.66 3524 3793.5 3547.84 3793.5 3577.25C3793.5 3606.66 3769.66 3630.5 3740.25 3630.5H3434.5C3404.4 3630.5 3380 3654.9 3380 3685C3380 3715.1 3404.4 3739.5 3434.5 3739.5H3909.25C3938.66 3739.5 3962.5 3763.34 3962.5 3792.75C3962.5 3822.16 3938.66 3846 3909.25 3846H3284.75C3255.62 3846 3232 3869.62 3232 3898.75C3232 3927.88 3255.62 3951.5 3284.75 3951.5H3564.75C3594.44 3951.5 3618.5 3975.56 3618.5 4005.25C3618.5 4034.94 3594.44 4059 3564.75 4059H3402.25C3369.25 4059 3342.5 4085.75 3342.5 4118.75C3342.5 4151.75 3369.25 4178.5 3402.25 4178.5H3758.25C3792.08 4178.5 3819.5 4205.92 3819.5 4239.75C3819.5 4273.58 3792.08 4301 3758.25 4301H3219C3187.52 4301 3162 4326.52 3162 4358C3162 4389.48 3187.52 4415 3219 4415H3632.88C3664.84 4415 3690.75 4440.91 3690.75 4472.88V4474.12C3690.75 4505.4 3665.4 4530.75 3634.12 4530.75C3602.85 4530.75 3577.5 4556.1 3577.5 4587.38C3577.5 4618.65 3602.85 4644 3634.12 4644H4166.5H4282.38C4313.65 4644 4339 4618.65 4339 4587.38C4339 4556.1 4313.65 4530.75 4282.38 4530.75H4243.38C4211.41 4530.75 4185.5 4504.84 4185.5 4472.88C4185.5 4440.91 4211.41 4415 4243.38 4415H4368C4399.48 4415 4425 4389.48 4425 4358C4425 4326.52 4399.48 4301 4368 4301H4205.25C4171.42 4301 4144 4273.58 4144 4239.75C4144 4205.92 4171.42 4178.5 4205.25 4178.5H4666.25C4699.25 4178.5 4726 4151.75 4726 4118.75C4726 4085.75 4699.25 4059 4666.25 4059H4361.75C4332.06 4059 4308 4034.94 4308 4005.25C4308 3975.56 4332.06 3951.5 4361.75 3951.5H4507.25C4536.38 3951.5 4560 3927.88 4560 3898.75C4560 3869.62 4536.38 3846 4507.25 3846H4324.75C4295.34 3846 4271.5 3822.16 4271.5 3792.75C4271.5 3763.34 4295.34 3739.5 4324.75 3739.5H4739C4769.1 3739.5 4793.5 3715.1 4793.5 3685C4793.5 3654.9 4769.1 3630.5 4739 3630.5H4361.25C4331.84 3630.5 4308 3606.66 4308 3577.25C4308 3547.84 4331.84 3524 4361.25 3524H4508C4536.72 3524 4560 3500.72 4560 3472C4560 3443.28 4536.72 3420 4508 3420H4280.5C4253.99 3420 4232.5 3398.51 4232.5 3372C4232.5 3345.49 4253.99 3324 4280.5 3324H4784.5C4812.67 3324 4835.5 3301.17 4835.5 3273C4835.5 3244.83 4812.67 3222 4784.5 3222H4419.75Z" fill="url(#paint3_linear_26_2)"/>
<path d="M5166.75 2519C5199.75 2519 5226.5 2492.25 5226.5 2459.25C5226.5 2426.25 5199.75 2399.5 5166.75 2399.5H5100.25C5069.74 2399.5 5045 2374.76 5045 2344.25C5045 2313.74 5069.74 2289 5100.25 2289H5891.25C5921.76 2289 5946.5 2313.74 5946.5 2344.25C5946.5 2374.76 5921.76 2399.5 5891.25 2399.5H5826.75C5793.75 2399.5 5767 2426.25 5767 2459.25C5767 2492.25 5793.75 2519 5826.75 2519H6193C6221.17 2519 6244 2541.83 6244 2570C6244 2598.17 6221.17 2621 6193 2621H5740C5713.49 2621 5692 2642.49 5692 2669C5692 2695.51 5713.49 2717 5740 2717H6349C6377.72 2717 6401 2740.28 6401 2769C6401 2797.72 6377.72 2821 6349 2821H5846.25C5816.84 2821 5793 2844.84 5793 2874.25C5793 2903.66 5816.84 2927.5 5846.25 2927.5H6152C6182.1 2927.5 6206.5 2951.9 6206.5 2982C6206.5 3012.1 6182.1 3036.5 6152 3036.5H5677.25C5647.84 3036.5 5624 3060.34 5624 3089.75C5624 3119.16 5647.84 3143 5677.25 3143H6301.75C6330.88 3143 6354.5 3166.62 6354.5 3195.75C6354.5 3224.88 6330.88 3248.5 6301.75 3248.5H6021.75C5992.06 3248.5 5968 3272.56 5968 3302.25C5968 3331.94 5992.06 3356 6021.75 3356H6184.25C6217.25 3356 6244 3382.75 6244 3415.75C6244 3448.75 6217.25 3475.5 6184.25 3475.5H5828.25C5794.42 3475.5 5767 3502.92 5767 3536.75C5767 3570.58 5794.42 3598 5828.25 3598H6367.5C6398.98 3598 6424.5 3623.52 6424.5 3655C6424.5 3686.48 6398.98 3712 6367.5 3712H5953.62C5921.66 3712 5895.75 3737.91 5895.75 3769.88V3771.12C5895.75 3802.4 5921.1 3827.75 5952.38 3827.75C5983.65 3827.75 6009 3853.1 6009 3884.38C6009 3915.65 5983.65 3941 5952.38 3941H5420H5109.12C5077.85 3941 5052.5 3915.65 5052.5 3884.38C5052.5 3853.1 5077.85 3827.75 5109.12 3827.75H5343.12C5375.09 3827.75 5401 3801.84 5401 3769.88C5401 3737.91 5375.09 3712 5343.12 3712H5218.5C5187.02 3712 5161.5 3686.48 5161.5 3655C5161.5 3623.52 5187.02 3598 5218.5 3598H5381.25C5415.08 3598 5442.5 3570.58 5442.5 3536.75C5442.5 3502.92 5415.08 3475.5 5381.25 3475.5H4920.25C4887.25 3475.5 4860.5 3448.75 4860.5 3415.75C4860.5 3382.75 4887.25 3356 4920.25 3356H5224.75C5254.44 3356 5278.5 3331.94 5278.5 3302.25C5278.5 3272.56 5254.44 3248.5 5224.75 3248.5H5079.25C5050.12 3248.5 5026.5 3224.88 5026.5 3195.75C5026.5 3166.62 5050.12 3143 5079.25 3143H5261.75C5291.16 3143 5315 3119.16 5315 3089.75C5315 3060.34 5291.16 3036.5 5261.75 3036.5H4847.5C4817.4 3036.5 4793 3012.1 4793 2982C4793 2951.9 4817.4 2927.5 4847.5 2927.5H5225.25C5254.66 2927.5 5278.5 2903.66 5278.5 2874.25C5278.5 2844.84 5254.66 2821 5225.25 2821H4741C4712.28 2821 4689 2797.72 4689 2769C4689 2740.28 4712.28 2717 4741 2717H5306C5332.51 2717 5354 2695.51 5354 2669C5354 2642.49 5332.51 2621 5306 2621H4524C4495.83 2621 4473 2598.17 4473 2570C4473 2541.83 4495.83 2519 4524 2519H5166.75Z" fill="url(#paint4_linear_26_2)"/>
<path d="M2203.75 1327C2170.75 1327 2144 1353.75 2144 1386.75C2144 1419.75 2170.75 1446.5 2203.75 1446.5H2301.25C2331.76 1446.5 2356.5 1471.24 2356.5 1501.75C2356.5 1532.26 2331.76 1557 2301.25 1557H1479.25C1448.74 1557 1424 1532.26 1424 1501.75C1424 1471.24 1448.74 1446.5 1479.25 1446.5H1543.75C1576.75 1446.5 1603.5 1419.75 1603.5 1386.75C1603.5 1353.75 1576.75 1327 1543.75 1327H1177.5C1149.33 1327 1126.5 1304.17 1126.5 1276C1126.5 1247.83 1149.33 1225 1177.5 1225H1630.5C1657.01 1225 1678.5 1203.51 1678.5 1177C1678.5 1150.49 1657.01 1129 1630.5 1129H1021.5C992.781 1129 969.5 1105.72 969.5 1077C969.5 1048.28 992.781 1025 1021.5 1025H1524.25C1553.66 1025 1577.5 1001.16 1577.5 971.75C1577.5 942.341 1553.66 918.5 1524.25 918.5H1218.5C1188.4 918.5 1164 894.1 1164 864C1164 833.9 1188.4 809.5 1218.5 809.5H1693.25C1722.66 809.5 1746.5 785.659 1746.5 756.25C1746.5 726.841 1722.66 703 1693.25 703H1068.75C1039.62 703 1016 679.383 1016 650.25C1016 621.117 1039.62 597.5 1068.75 597.5H1348.75C1378.44 597.5 1402.5 573.435 1402.5 543.75C1402.5 514.065 1378.44 490 1348.75 490H1186.25C1153.25 490 1126.5 463.249 1126.5 430.25C1126.5 397.251 1153.25 370.5 1186.25 370.5H1542.25C1576.08 370.5 1603.5 343.077 1603.5 309.25C1603.5 275.423 1576.08 248 1542.25 248H1003C971.52 248 946 222.48 946 191C946 159.52 971.52 134 1003 134H1416.88C1448.84 134 1474.75 108.089 1474.75 76.125V74.875C1474.75 43.6019 1449.4 18.25 1418.12 18.25C1386.85 18.25 1361.5 -7.10193 1361.5 -38.375C1361.5 -69.6481 1386.85 -95 1418.12 -95H1950.5H2066.38C2097.65 -95 2123 -69.6481 2123 -38.375C2123 -7.10193 2097.65 18.25 2066.38 18.25H2027.38C1995.41 18.25 1969.5 44.1615 1969.5 76.125C1969.5 108.089 1995.41 134 2027.38 134H2479C2510.48 134 2536 159.52 2536 191C2536 222.48 2510.48 248 2479 248H1989.25C1955.42 248 1928 275.423 1928 309.25C1928 343.077 1955.42 370.5 1989.25 370.5H2361.75C2394.75 370.5 2421.5 397.251 2421.5 430.25C2421.5 463.249 2394.75 490 2361.75 490H2145.75C2116.06 490 2092 514.065 2092 543.75C2092 573.435 2116.06 597.5 2145.75 597.5H2330.25C2359.38 597.5 2383 621.117 2383 650.25C2383 679.383 2359.38 703 2330.25 703H2108.75C2079.34 703 2055.5 726.841 2055.5 756.25C2055.5 785.659 2079.34 809.5 2108.75 809.5H2233.5C2263.6 809.5 2288 833.9 2288 864C2288 894.1 2312.4 918.5 2342.5 918.5H2379.25C2408.66 918.5 2432.5 942.341 2432.5 971.75C2432.5 1001.16 2456.34 1025 2485.75 1025H2689.5C2718.22 1025 2741.5 1048.28 2741.5 1077C2741.5 1105.72 2718.22 1129 2689.5 1129H2064.5C2037.99 1129 2016.5 1150.49 2016.5 1177C2016.5 1203.51 2037.99 1225 2064.5 1225H2438.5C2466.67 1225 2489.5 1247.83 2489.5 1276C2489.5 1304.17 2466.67 1327 2438.5 1327H2203.75Z" fill="url(#paint5_linear_26_2)"/>
<path d="M2892.75 1453C2925.75 1453 2952.5 1426.25 2952.5 1393.25C2952.5 1360.25 2925.75 1333.5 2892.75 1333.5H2826.25C2795.74 1333.5 2771 1308.76 2771 1278.25C2771 1247.74 2795.74 1223 2826.25 1223H3617.25C3647.76 1223 3672.5 1247.74 3672.5 1278.25C3672.5 1308.76 3647.76 1333.5 3617.25 1333.5H3552.75C3519.75 1333.5 3493 1360.25 3493 1393.25C3493 1426.25 3519.75 1453 3552.75 1453H3919C3947.17 1453 3970 1475.83 3970 1504C3970 1532.17 3947.17 1555 3919 1555H3466C3439.49 1555 3418 1576.49 3418 1603C3418 1629.51 3439.49 1651 3466 1651H4075C4103.72 1651 4127 1674.28 4127 1703C4127 1731.72 4103.72 1755 4075 1755H3572.25C3542.84 1755 3519 1778.84 3519 1808.25C3519 1837.66 3542.84 1861.5 3572.25 1861.5H3878C3908.1 1861.5 3932.5 1885.9 3932.5 1916C3932.5 1946.1 3908.1 1970.5 3878 1970.5H3403.25C3373.84 1970.5 3350 1994.34 3350 2023.75C3350 2053.16 3373.84 2077 3403.25 2077H4027.75C4056.88 2077 4080.5 2100.62 4080.5 2129.75C4080.5 2158.88 4056.88 2182.5 4027.75 2182.5H3747.75C3718.06 2182.5 3694 2206.56 3694 2236.25C3694 2265.94 3718.06 2290 3747.75 2290H3910.25C3943.25 2290 3970 2316.75 3970 2349.75C3970 2382.75 3943.25 2409.5 3910.25 2409.5H3554.25C3520.42 2409.5 3493 2436.92 3493 2470.75C3493 2504.58 3520.42 2532 3554.25 2532H4093.5C4124.98 2532 4150.5 2557.52 4150.5 2589C4150.5 2620.48 4124.98 2646 4093.5 2646H3679.62C3647.66 2646 3621.75 2671.91 3621.75 2703.88C3621.75 2735.84 3647.66 2761.75 3679.62 2761.75H3902.38C3933.65 2761.75 3959 2787.1 3959 2818.38C3959 2849.65 3933.65 2875 3902.38 2875H3146H3238.88C3270.15 2875 3295.5 2849.65 3295.5 2818.38C3295.5 2787.1 3270.15 2761.75 3238.88 2761.75H3184.88C3152.91 2761.75 3127 2735.84 3127 2703.88C3127 2671.91 3101.09 2646 3069.12 2646H2944.5C2913.02 2646 2887.5 2620.48 2887.5 2589C2887.5 2557.52 2913.02 2532 2944.5 2532H3107.25C3141.08 2532 3168.5 2504.58 3168.5 2470.75C3168.5 2436.92 3141.08 2409.5 3107.25 2409.5H2646.25C2613.25 2409.5 2586.5 2382.75 2586.5 2349.75C2586.5 2316.75 2613.25 2290 2646.25 2290H2950.75C2980.44 2290 3004.5 2265.94 3004.5 2236.25C3004.5 2206.56 2980.44 2182.5 2950.75 2182.5H1896.25C1867.12 2182.5 1843.5 2158.88 1843.5 2129.75C1843.5 2100.62 1867.12 2077 1896.25 2077H2987.75C3017.16 2077 3041 2053.16 3041 2023.75C3041 1994.34 3017.16 1970.5 2987.75 1970.5H2573.5C2543.4 1970.5 2519 1946.1 2519 1916C2519 1885.9 2543.4 1861.5 2573.5 1861.5H2951.25C2980.66 1861.5 3004.5 1837.66 3004.5 1808.25C3004.5 1778.84 2980.66 1755 2951.25 1755H2804.5C2775.78 1755 2752.5 1731.72 2752.5 1703C2752.5 1674.28 2775.78 1651 2804.5 1651H3032C3058.51 1651 3080 1629.51 3080 1603C3080 1576.49 3058.51 1555 3032 1555H2528C2499.83 1555 2477 1532.17 2477 1504C2477 1475.83 2499.83 1453 2528 1453H2892.75Z" fill="url(#paint6_linear_26_2)"/>
<path d="M-160.25 1168C-127.251 1168 -100.5 1194.75 -100.5 1227.75C-100.5 1260.75 -127.251 1287.5 -160.25 1287.5H-226.75C-257.264 1287.5 -282 1312.24 -282 1342.75C-282 1373.26 -257.264 1398 -226.75 1398H564.25C594.764 1398 619.5 1373.26 619.5 1342.75C619.5 1312.24 594.764 1287.5 564.25 1287.5H499.75C466.751 1287.5 440 1260.75 440 1227.75C440 1194.75 466.751 1168 499.75 1168H866C894.167 1168 917 1145.17 917 1117C917 1088.83 894.167 1066 866 1066H413C386.49 1066 365 1044.51 365 1018C365 991.49 386.49 970 413 970H1022C1050.72 970 1074 946.719 1074 918C1074 889.281 1050.72 866 1022 866H519.25C489.841 866 466 842.159 466 812.75C466 783.341 489.841 759.5 519.25 759.5H825C855.099 759.5 879.5 735.1 879.5 705C879.5 674.9 855.099 650.5 825 650.5H350.25C320.841 650.5 297 626.659 297 597.25C297 567.841 320.841 544 350.25 544H974.75C1003.88 544 1027.5 520.383 1027.5 491.25C1027.5 462.117 1003.88 438.5 974.75 438.5H694.75C665.065 438.5 641 414.435 641 384.75C641 355.065 665.065 331 694.75 331H857.25C890.249 331 917 304.249 917 271.25C917 238.251 890.249 211.5 857.25 211.5H501.25C467.423 211.5 440 184.077 440 150.25C440 116.423 467.423 89 501.25 89H1040.5C1071.98 89 1097.5 63.4802 1097.5 32C1097.5 0.519775 1071.98 -25 1040.5 -25H626.625C594.661 -25 568.75 -50.9115 568.75 -82.875V-84.125C568.75 -115.398 594.102 -140.75 625.375 -140.75C656.648 -140.75 682 -166.102 682 -197.375C682 -228.648 656.648 -254 625.375 -254H93H-22.875C-54.1481 -254 -79.5 -228.648 -79.5 -197.375C-79.5 -166.102 -54.1481 -140.75 -22.875 -140.75H16.125C48.0885 -140.75 74 -114.839 74 -82.875C74 -50.9115 48.0885 -25 16.125 -25H-108.5C-139.98 -25 -165.5 0.519775 -165.5 32C-165.5 63.4802 -139.98 89 -108.5 89H54.25C88.0775 89 115.5 116.423 115.5 150.25C115.5 184.077 88.0775 211.5 54.25 211.5H-406.75C-439.749 211.5 -466.5 238.251 -466.5 271.25C-466.5 304.249 -439.749 331 -406.75 331H-102.25C-72.5647 331 -48.5 355.065 -48.5 384.75C-48.5 414.435 -72.5647 438.5 -102.25 438.5H-247.75C-276.883 438.5 -300.5 462.117 -300.5 491.25C-300.5 520.383 -276.883 544 -247.75 544H-65.25C-35.8408 544 -12 567.841 -12 597.25C-12 626.659 -35.8408 650.5 -65.25 650.5H-479.5C-509.6 650.5 -534 674.9 -534 705C-534 735.1 -509.6 759.5 -479.5 759.5H-101.75C-72.3408 759.5 -48.5 783.341 -48.5 812.75C-48.5 842.159 -72.3409 866 -101.75 866H-248.5C-277.219 866 -300.5 889.281 -300.5 918C-300.5 946.719 -277.219 970 -248.5 970H-21C5.50964 970 27 991.49 27 1018C27 1044.51 5.50964 1066 -21 1066H-525C-553.167 1066 -576 1088.83 -576 1117C-576 1145.17 -553.167 1168 -525 1168H-160.25Z" fill="url(#paint7_linear_26_2)"/>
<path d="M6840.75 4297C6873.75 4297 6900.5 4323.75 6900.5 4356.75C6900.5 4389.75 6873.75 4416.5 6840.75 4416.5H6774.25C6743.74 4416.5 6719 4441.24 6719 4471.75C6719 4502.26 6743.74 4527 6774.25 4527H7565.25C7595.76 4527 7620.5 4502.26 7620.5 4471.75C7620.5 4441.24 7595.76 4416.5 7565.25 4416.5H7500.75C7467.75 4416.5 7441 4389.75 7441 4356.75C7441 4323.75 7467.75 4297 7500.75 4297H7867C7895.17 4297 7918 4274.17 7918 4246C7918 4217.83 7895.17 4195 7867 4195H7414C7387.49 4195 7366 4173.51 7366 4147C7366 4120.49 7387.49 4099 7414 4099H8023C8051.72 4099 8075 4075.72 8075 4047C8075 4018.28 8051.72 3995 8023 3995H7520.25C7490.84 3995 7467 3971.16 7467 3941.75C7467 3912.34 7490.84 3888.5 7520.25 3888.5H7826C7856.1 3888.5 7880.5 3864.1 7880.5 3834C7880.5 3803.9 7856.1 3779.5 7826 3779.5H7351.25C7321.84 3779.5 7298 3755.66 7298 3726.25C7298 3696.84 7321.84 3673 7351.25 3673H7975.75C8004.88 3673 8028.5 3649.38 8028.5 3620.25C8028.5 3591.12 8004.88 3567.5 7975.75 3567.5H7695.75C7666.06 3567.5 7642 3543.44 7642 3513.75C7642 3484.06 7666.06 3460 7695.75 3460H7858.25C7891.25 3460 7918 3433.25 7918 3400.25C7918 3367.25 7891.25 3340.5 7858.25 3340.5H7502.25C7468.42 3340.5 7441 3313.08 7441 3279.25C7441 3245.42 7468.42 3218 7502.25 3218H8041.5C8072.98 3218 8098.5 3192.48 8098.5 3161C8098.5 3129.52 8072.98 3104 8041.5 3104H7627.62C7595.66 3104 7569.75 3078.09 7569.75 3046.12V3044.88C7569.75 3013.6 7595.1 2988.25 7626.38 2988.25C7657.65 2988.25 7683 2962.9 7683 2931.62C7683 2900.35 7657.65 2875 7626.38 2875H7094H6630.12C6598.85 2875 6573.5 2900.35 6573.5 2931.62C6573.5 2962.9 6598.85 2988.25 6630.12 2988.25H7017.12C7049.09 2988.25 7075 3014.16 7075 3046.12C7075 3078.09 7049.09 3104 7017.12 3104H6892.5C6861.02 3104 6835.5 3129.52 6835.5 3161C6835.5 3192.48 6861.02 3218 6892.5 3218H7055.25C7089.08 3218 7116.5 3245.42 7116.5 3279.25C7116.5 3313.08 7089.08 3340.5 7055.25 3340.5H6594.25C6561.25 3340.5 6534.5 3367.25 6534.5 3400.25C6534.5 3433.25 6561.25 3460 6594.25 3460H6898.75C6928.44 3460 6952.5 3484.06 6952.5 3513.75C6952.5 3543.44 6928.44 3567.5 6898.75 3567.5H6753.25C6724.12 3567.5 6700.5 3591.12 6700.5 3620.25C6700.5 3649.38 6724.12 3673 6753.25 3673H6935.75C6965.16 3673 6989 3696.84 6989 3726.25C6989 3755.66 6965.16 3779.5 6935.75 3779.5H6521.5C6491.4 3779.5 6467 3803.9 6467 3834C6467 3864.1 6491.4 3888.5 6521.5 3888.5H6899.25C6928.66 3888.5 6952.5 3912.34 6952.5 3941.75C6952.5 3971.16 6928.66 3995 6899.25 3995H6752.5C6723.78 3995 6700.5 4018.28 6700.5 4047C6700.5 4075.72 6723.78 4099 6752.5 4099H6980C7006.51 4099 7028 4120.49 7028 4147C7028 4173.51 7006.51 4195 6980 4195H6476C6447.83 4195 6425 4217.83 6425 4246C6425 4274.17 6447.83 4297 6476 4297H6840.75Z" fill="url(#paint8_linear_26_2)"/>
<path d="M7337.75 2437C7304.75 2437 7278 2463.75 7278 2496.75C7278 2529.75 7304.75 2556.5 7337.75 2556.5H7404.25C7434.76 2556.5 7459.5 2581.24 7459.5 2611.75C7459.5 2642.26 7434.76 2667 7404.25 2667H6613.25C6582.74 2667 6558 2642.26 6558 2611.75C6558 2581.24 6582.74 2556.5 6613.25 2556.5H6677.75C6710.75 2556.5 6737.5 2529.75 6737.5 2496.75C6737.5 2463.75 6710.75 2437 6677.75 2437H6311.5C6283.33 2437 6260.5 2414.17 6260.5 2386C6260.5 2357.83 6283.33 2335 6311.5 2335H6764.5C6791.01 2335 6812.5 2313.51 6812.5 2287C6812.5 2260.49 6791.01 2239 6764.5 2239H6155.5C6126.78 2239 6103.5 2215.72 6103.5 2187C6103.5 2158.28 6126.78 2135 6155.5 2135H6658.25C6687.66 2135 6711.5 2111.16 6711.5 2081.75C6711.5 2052.34 6687.66 2028.5 6658.25 2028.5H6352.5C6322.4 2028.5 6298 2004.1 6298 1974C6298 1943.9 6322.4 1919.5 6352.5 1919.5H6827.25C6856.66 1919.5 6880.5 1895.66 6880.5 1866.25C6880.5 1836.84 6856.66 1813 6827.25 1813H6202.75C6173.62 1813 6150 1789.38 6150 1760.25C6150 1731.12 6173.62 1707.5 6202.75 1707.5H6482.75C6512.44 1707.5 6536.5 1683.44 6536.5 1653.75C6536.5 1624.06 6512.44 1600 6482.75 1600H6320.25C6287.25 1600 6260.5 1573.25 6260.5 1540.25C6260.5 1507.25 6287.25 1480.5 6320.25 1480.5H6676.25C6710.08 1480.5 6737.5 1453.08 6737.5 1419.25C6737.5 1385.42 6710.08 1358 6676.25 1358H6137C6105.52 1358 6080 1332.48 6080 1301C6080 1269.52 6105.52 1244 6137 1244H6550.88C6582.84 1244 6608.75 1218.09 6608.75 1186.12V1184.88C6608.75 1153.6 6583.4 1128.25 6552.12 1128.25C6520.85 1128.25 6495.5 1102.9 6495.5 1071.62C6495.5 1040.35 6520.85 1015 6552.12 1015H7084.5H7200.38C7231.65 1015 7257 1040.35 7257 1071.62C7257 1102.9 7231.65 1128.25 7200.38 1128.25H7161.38C7129.41 1128.25 7103.5 1154.16 7103.5 1186.12C7103.5 1218.09 7129.41 1244 7161.38 1244H7286C7317.48 1244 7343 1269.52 7343 1301C7343 1332.48 7317.48 1358 7286 1358H7123.25C7089.42 1358 7062 1385.42 7062 1419.25C7062 1453.08 7089.42 1480.5 7123.25 1480.5H7584.25C7617.25 1480.5 7644 1507.25 7644 1540.25C7644 1573.25 7617.25 1600 7584.25 1600H7279.75C7250.06 1600 7226 1624.06 7226 1653.75C7226 1683.44 7250.06 1707.5 7279.75 1707.5H7425.25C7454.38 1707.5 7478 1731.12 7478 1760.25C7478 1789.38 7454.38 1813 7425.25 1813H7242.75C7213.34 1813 7189.5 1836.84 7189.5 1866.25C7189.5 1895.66 7213.34 1919.5 7242.75 1919.5H7657C7687.1 1919.5 7711.5 1943.9 7711.5 1974C7711.5 2004.1 7687.1 2028.5 7657 2028.5H7279.25C7249.84 2028.5 7226 2052.34 7226 2081.75C7226 2111.16 7249.84 2135 7279.25 2135H7426C7454.72 2135 7478 2158.28 7478 2187C7478 2215.72 7454.72 2239 7426 2239H7198.5C7171.99 2239 7150.5 2260.49 7150.5 2287C7150.5 2313.51 7171.99 2335 7198.5 2335H7702.5C7730.67 2335 7753.5 2357.83 7753.5 2386C7753.5 2414.17 7730.67 2437 7702.5 2437H7337.75Z" fill="url(#paint9_linear_26_2)"/>
<path d="M6421.75 577C6454.75 577 6481.5 603.751 6481.5 636.75C6481.5 669.749 6454.75 696.5 6421.75 696.5H6355.25C6324.74 696.5 6300 721.236 6300 751.75C6300 782.264 6324.74 807 6355.25 807H7146.25C7176.76 807 7201.5 782.264 7201.5 751.75C7201.5 721.236 7176.76 696.5 7146.25 696.5H7081.75C7048.75 696.5 7022 669.749 7022 636.75C7022 603.751 7048.75 577 7081.75 577H7448C7476.17 577 7499 554.167 7499 526C7499 497.833 7476.17 475 7448 475H6995C6968.49 475 6947 453.51 6947 427C6947 400.49 6968.49 379 6995 379H7604C7632.72 379 7656 355.719 7656 327C7656 298.281 7632.72 275 7604 275H7101.25C7071.84 275 7048 251.159 7048 221.75C7048 192.341 7071.84 168.5 7101.25 168.5H7407C7437.1 168.5 7461.5 144.1 7461.5 114C7461.5 83.9005 7437.1 59.5 7407 59.5H6932.25C6902.84 59.5 6879 35.6592 6879 6.25C6879 -23.1592 6902.84 -47 6932.25 -47H7556.75C7585.88 -47 7609.5 -70.617 7609.5 -99.75C7609.5 -128.883 7585.88 -152.5 7556.75 -152.5H7276.75C7247.06 -152.5 7223 -176.565 7223 -206.25C7223 -235.935 7247.06 -260 7276.75 -260H7439.25C7472.25 -260 7499 -286.751 7499 -319.75C7499 -352.749 7472.25 -379.5 7439.25 -379.5H7083.25C7049.42 -379.5 7022 -406.923 7022 -440.75C7022 -474.577 7049.42 -502 7083.25 -502H7622.5C7653.98 -502 7679.5 -527.52 7679.5 -559C7679.5 -590.48 7653.98 -616 7622.5 -616H7208.62C7176.66 -616 7150.75 -641.911 7150.75 -673.875V-675.125C7150.75 -706.398 7176.1 -731.75 7207.38 -731.75C7238.65 -731.75 7264 -757.102 7264 -788.375C7264 -819.648 7238.65 -845 7207.38 -845H6675H6559.12C6527.85 -845 6502.5 -819.648 6502.5 -788.375C6502.5 -757.102 6527.85 -731.75 6559.12 -731.75H6598.12C6630.09 -731.75 6656 -705.839 6656 -673.875C6656 -641.911 6630.09 -616 6598.12 -616H6473.5C6442.02 -616 6416.5 -590.48 6416.5 -559C6416.5 -527.52 6442.02 -502 6473.5 -502H6636.25C6670.08 -502 6697.5 -474.577 6697.5 -440.75C6697.5 -406.923 6670.08 -379.5 6636.25 -379.5H6175.25C6142.25 -379.5 6115.5 -352.749 6115.5 -319.75C6115.5 -286.751 6142.25 -260 6175.25 -260H6479.75C6509.44 -260 6533.5 -235.935 6533.5 -206.25C6533.5 -176.565 6509.44 -152.5 6479.75 -152.5H6334.25C6305.12 -152.5 6281.5 -128.883 6281.5 -99.75C6281.5 -70.617 6305.12 -47 6334.25 -47H6516.75C6546.16 -47 6570 -23.1592 6570 6.25C6570 35.6592 6546.16 59.5 6516.75 59.5H6102.5C6072.4 59.5 6048 83.9005 6048 114C6048 144.1 6072.4 168.5 6102.5 168.5H6480.25C6509.66 168.5 6533.5 192.341 6533.5 221.75C6533.5 251.159 6509.66 275 6480.25 275H6333.5C6304.78 275 6281.5 298.281 6281.5 327C6281.5 355.719 6304.78 379 6333.5 379H6561C6587.51 379 6609 400.49 6609 427C6609 453.51 6587.51 475 6561 475H6057C6028.83 475 6006 497.833 6006 526C6006 554.167 6028.83 577 6057 577H6421.75Z" fill="url(#paint10_linear_26_2)"/>
<path d="M3877.75 -407C3844.75 -407 3818 -433.751 3818 -466.75C3818 -499.749 3844.75 -526.5 3877.75 -526.5H3944.25C3974.76 -526.5 3999.5 -551.236 3999.5 -581.75C3999.5 -612.264 3974.76 -637 3944.25 -637H3153.25C3122.74 -637 3098 -612.264 3098 -581.75C3098 -551.236 3122.74 -526.5 3153.25 -526.5H3217.75C3250.75 -526.5 3277.5 -499.749 3277.5 -466.75C3277.5 -433.751 3250.75 -407 3217.75 -407H2851.5C2823.33 -407 2800.5 -384.167 2800.5 -356C2800.5 -327.833 2823.33 -305 2851.5 -305H3304.5C3331.01 -305 3352.5 -283.51 3352.5 -257C3352.5 -230.49 3331.01 -209 3304.5 -209H2695.5C2666.78 -209 2643.5 -185.719 2643.5 -157C2643.5 -128.281 2666.78 -105 2695.5 -105H3198.25C3227.66 -105 3251.5 -81.1592 3251.5 -51.75C3251.5 -22.3408 3227.66 1.5 3198.25 1.5H2892.5C2862.4 1.5 2838 25.9005 2838 56C2838 86.0995 2862.4 110.5 2892.5 110.5H3367.25C3396.66 110.5 3420.5 134.341 3420.5 163.75C3420.5 193.159 3396.66 217 3367.25 217H2742.75C2713.62 217 2690 240.617 2690 269.75C2690 298.883 2713.62 322.5 2742.75 322.5H3022.75C3052.44 322.5 3076.5 346.565 3076.5 376.25C3076.5 405.935 3052.44 430 3022.75 430H2860.25C2827.25 430 2800.5 456.751 2800.5 489.75C2800.5 522.749 2827.25 549.5 2860.25 549.5H3216.25C3250.08 549.5 3277.5 576.923 3277.5 610.75C3277.5 644.577 3250.08 672 3216.25 672H2677C2645.52 672 2620 697.52 2620 729C2620 760.48 2645.52 786 2677 786H3090.88C3122.84 786 3148.75 811.911 3148.75 843.875V845.125C3148.75 876.398 3123.4 901.75 3092.12 901.75C3060.85 901.75 3035.5 927.102 3035.5 958.375C3035.5 989.648 3060.85 1015 3092.12 1015H3624.5H3740.38C3771.65 1015 3797 989.648 3797 958.375C3797 927.102 3771.65 901.75 3740.38 901.75H3701.38C3669.41 901.75 3643.5 875.839 3643.5 843.875C3643.5 811.911 3669.41 786 3701.38 786H3826C3857.48 786 3883 760.48 3883 729C3883 697.52 3857.48 672 3826 672H3663.25C3629.42 672 3602 644.577 3602 610.75C3602 576.923 3629.42 549.5 3663.25 549.5H4124.25C4157.25 549.5 4184 522.749 4184 489.75C4184 456.751 4157.25 430 4124.25 430H3819.75C3790.06 430 3766 405.935 3766 376.25C3766 346.565 3790.06 322.5 3819.75 322.5H3965.25C3994.38 322.5 4018 298.883 4018 269.75C4018 240.617 3994.38 217 3965.25 217H3782.75C3753.34 217 3729.5 193.159 3729.5 163.75C3729.5 134.341 3753.34 110.5 3782.75 110.5H4197C4227.1 110.5 4251.5 86.0995 4251.5 56C4251.5 25.9005 4227.1 1.5 4197 1.5H3819.25C3789.84 1.5 3766 -22.3408 3766 -51.75C3766 -81.1592 3789.84 -105 3819.25 -105H3966C3994.72 -105 4018 -128.281 4018 -157C4018 -185.719 3994.72 -209 3966 -209H3738.5C3711.99 -209 3690.5 -230.49 3690.5 -257C3690.5 -283.51 3711.99 -305 3738.5 -305H4242.5C4270.67 -305 4293.5 -327.833 4293.5 -356C4293.5 -384.167 4270.67 -407 4242.5 -407H3877.75Z" fill="url(#paint11_linear_26_2)"/>
<path d="M5498.75 627C5465.75 627 5439 600.249 5439 567.25C5439 534.251 5465.75 507.5 5498.75 507.5H5635.25C5665.76 507.5 5690.5 482.764 5690.5 452.25C5690.5 421.736 5665.76 397 5635.25 397H4774.25C4743.74 397 4719 421.736 4719 452.25C4719 482.764 4743.74 507.5 4774.25 507.5H4838.75C4871.75 507.5 4898.5 534.251 4898.5 567.25C4898.5 600.249 4871.75 627 4838.75 627H4472.5C4444.33 627 4421.5 649.833 4421.5 678C4421.5 706.167 4444.33 729 4472.5 729H4925.5C4952.01 729 4973.5 750.49 4973.5 777C4973.5 803.51 4952.01 825 4925.5 825H4316.5C4287.78 825 4264.5 848.281 4264.5 877C4264.5 905.719 4287.78 929 4316.5 929H4819.25C4848.66 929 4872.5 952.841 4872.5 982.25C4872.5 1011.66 4848.66 1035.5 4819.25 1035.5H4617.5C4587.4 1035.5 4563 1059.9 4563 1090C4563 1120.1 4587.4 1144.5 4617.5 1144.5H4988.25C5017.66 1144.5 5041.5 1168.34 5041.5 1197.75C5041.5 1227.16 5017.66 1251 4988.25 1251H4233.75C4204.62 1251 4181 1274.62 4181 1303.75C4181 1332.88 4204.62 1356.5 4233.75 1356.5H4643.75C4673.44 1356.5 4697.5 1380.56 4697.5 1410.25C4697.5 1439.94 4673.44 1464 4643.75 1464H4481.25C4448.25 1464 4421.5 1490.75 4421.5 1523.75C4421.5 1556.75 4448.25 1583.5 4481.25 1583.5H4837.25C4871.08 1583.5 4898.5 1610.92 4898.5 1644.75C4898.5 1678.58 4871.08 1706 4837.25 1706H4620C4588.52 1706 4563 1731.52 4563 1763C4563 1794.48 4588.52 1820 4620 1820H4711.88C4743.84 1820 4769.75 1845.91 4769.75 1877.88C4769.75 1909.84 4743.84 1935.75 4711.88 1935.75H4404.12C4372.85 1935.75 4347.5 1961.1 4347.5 1992.38C4347.5 2023.65 4372.85 2049 4404.12 2049H5245.5H5361.38C5392.65 2049 5418 2023.65 5418 1992.38C5418 1961.1 5392.65 1935.75 5361.38 1935.75H5322.38C5290.41 1935.75 5264.5 1909.84 5264.5 1877.88C5264.5 1845.91 5290.41 1820 5322.38 1820H5447C5478.48 1820 5504 1794.48 5504 1763C5504 1731.52 5478.48 1706 5447 1706H5284.25C5250.42 1706 5223 1678.58 5223 1644.75C5223 1610.92 5250.42 1583.5 5284.25 1583.5H5745.25C5778.25 1583.5 5805 1556.75 5805 1523.75C5805 1490.75 5778.25 1464 5745.25 1464H5440.75C5411.06 1464 5387 1439.94 5387 1410.25C5387 1380.56 5411.06 1356.5 5440.75 1356.5H5586.25C5615.38 1356.5 5639 1332.88 5639 1303.75C5639 1274.62 5615.38 1251 5586.25 1251H5403.75C5374.34 1251 5350.5 1227.16 5350.5 1197.75C5350.5 1168.34 5374.34 1144.5 5403.75 1144.5H5818C5848.1 1144.5 5872.5 1120.1 5872.5 1090C5872.5 1059.9 5848.1 1035.5 5818 1035.5H5440.25C5410.84 1035.5 5387 1011.66 5387 982.25C5387 952.841 5410.84 929 5440.25 929H6007.5C6036.22 929 6059.5 905.719 6059.5 877C6059.5 848.281 6036.22 825 6007.5 825H5359.5C5332.99 825 5311.5 803.51 5311.5 777C5311.5 750.49 5332.99 729 5359.5 729H5863.5C5891.67 729 5914.5 706.167 5914.5 678C5914.5 649.833 5891.67 627 5863.5 627H5498.75Z" fill="url(#paint12_linear_26_2)"/>
<g clip-path="url(#clip1_26_2)">
<path d="M3876.55 1734.6V1823.18V1848.69C3876.55 1852.06 3875.68 1856.92 3876.99 1860.07C3878.17 1862.89 3880.35 1865.43 3881.99 1867.99C3886.11 1874.38 3890.43 1880.63 3894.64 1886.95C3908.53 1907.82 3923.14 1928.2 3938.03 1948.36C3963.08 1982.27 3990.13 2014.63 4014.63 2048.95C4051.28 2100.32 4082.13 2157.44 4092.4 2220.27C4094.1 2230.69 4095.97 2241.43 4096.45 2251.98C4096.82 2259.98 4096.47 2268.09 4096.47 2276.11C4096.47 2281.89 4096.97 2287.92 4096.43 2293.68C4094.18 2317.86 4087.44 2341.79 4078.47 2364.35C4067.25 2392.59 4050.27 2418.01 4030.43 2440.87C3988.31 2489.37 3925.63 2516.76 3862.42 2521.84C3855.05 2522.43 3847.41 2521.87 3840.02 2521.87C3832.62 2521.87 3824.98 2522.43 3817.61 2521.84C3778.77 2518.71 3740.4 2507.4 3706.62 2487.67C3653.33 2456.53 3613.83 2404.02 3594.7 2345.73C3587.16 2322.78 3583.57 2299.48 3583.57 2275.42C3583.57 2267.55 3583.02 2259.47 3583.6 2251.63C3585.18 2230.07 3589.11 2208.45 3594.74 2187.52C3613.62 2117.44 3657.91 2056.77 3701.94 2000.41C3726.92 1968.43 3751.73 1936.36 3774.59 1902.81C3780.81 1893.68 3787.02 1884.56 3793.17 1875.38C3796.17 1870.9 3800.37 1866.09 3802.4 1861.1C3803.67 1857.95 3802.79 1853.09 3802.79 1849.72V1823.87V1735.63H3802.45C3797.03 1747.07 3788.32 1757.85 3781.31 1768.38C3767.22 1789.51 3752.9 1810.46 3738.14 1831.11C3669.72 1926.81 3584.43 2014.89 3542.63 2126.85C3533.75 2150.63 3527.04 2174.99 3522.37 2199.93C3519.06 2217.64 3517.89 2235.45 3516.67 2253.36C3515.95 2263.78 3515.32 2274.6 3516.04 2285.07C3521.57 2365.35 3557.42 2444.94 3616.66 2500.12C3644.7 2526.24 3676.91 2547.33 3712.48 2561.71C3747.37 2575.82 3783.77 2582.08 3821.06 2584.63C3911.44 2590.83 4004.05 2559.47 4068.55 2494.98C4098.34 2465.18 4122.79 2429.19 4138.93 2390.2C4153.04 2356.11 4161.47 2320.79 4163.99 2284.03C4164.88 2271.18 4163.46 2258.23 4162.99 2245.43C4160.69 2182.06 4138.4 2119.76 4108.42 2064.47C4068.44 1990.72 4012.89 1927.93 3963.37 1860.75C3943.61 1833.94 3924.33 1806.78 3905.85 1779.06C3899.74 1769.89 3893.51 1760.79 3887.6 1751.49C3884.1 1745.96 3880.86 1739.53 3876.55 1734.6Z" fill="url(#paint13_linear_26_2)"/>
<g filter="url(#filter0_f_26_2)">
<path d="M3876.55 1734.6V1823.18V1848.69C3876.55 1852.06 3875.68 1856.92 3876.99 1860.07C3878.17 1862.89 3880.35 1865.43 3881.99 1867.99C3886.11 1874.38 3890.43 1880.63 3894.64 1886.95C3908.53 1907.82 3923.14 1928.2 3938.03 1948.36C3963.08 1982.27 3990.13 2014.63 4014.63 2048.95C4051.28 2100.32 4082.13 2157.44 4092.4 2220.27C4094.1 2230.69 4095.97 2241.43 4096.45 2251.98C4096.82 2259.98 4096.47 2268.09 4096.47 2276.11C4096.47 2281.89 4096.97 2287.92 4096.43 2293.68C4094.18 2317.86 4087.44 2341.79 4078.47 2364.35C4067.25 2392.59 4050.27 2418.01 4030.43 2440.87C3988.31 2489.37 3925.63 2516.76 3862.42 2521.84C3855.05 2522.43 3847.41 2521.87 3840.02 2521.87C3832.62 2521.87 3824.98 2522.43 3817.61 2521.84C3778.77 2518.71 3740.4 2507.4 3706.62 2487.67C3653.33 2456.53 3613.83 2404.02 3594.7 2345.73C3587.16 2322.78 3583.57 2299.48 3583.57 2275.42C3583.57 2267.55 3583.02 2259.47 3583.6 2251.63C3585.18 2230.07 3589.11 2208.45 3594.74 2187.52C3613.62 2117.44 3657.91 2056.77 3701.94 2000.41C3726.92 1968.43 3751.73 1936.36 3774.59 1902.81C3780.81 1893.68 3787.02 1884.56 3793.17 1875.38C3796.17 1870.9 3800.37 1866.09 3802.4 1861.1C3803.67 1857.95 3802.79 1853.09 3802.79 1849.72V1823.87V1735.63H3802.45C3797.03 1747.07 3788.32 1757.85 3781.31 1768.38C3767.22 1789.51 3752.9 1810.46 3738.14 1831.11C3669.72 1926.81 3584.43 2014.89 3542.63 2126.85C3533.75 2150.63 3527.04 2174.99 3522.37 2199.93C3519.06 2217.64 3517.89 2235.45 3516.67 2253.36C3515.95 2263.78 3515.32 2274.6 3516.04 2285.07C3521.57 2365.35 3557.42 2444.94 3616.66 2500.12C3644.7 2526.24 3676.91 2547.33 3712.48 2561.71C3747.37 2575.82 3783.77 2582.08 3821.06 2584.63C3911.44 2590.83 4004.05 2559.47 4068.55 2494.98C4098.34 2465.18 4122.79 2429.19 4138.93 2390.2C4153.04 2356.11 4161.47 2320.79 4163.99 2284.03C4164.88 2271.18 4163.46 2258.23 4162.99 2245.43C4160.69 2182.06 4138.4 2119.76 4108.42 2064.47C4068.44 1990.72 4012.89 1927.93 3963.37 1860.75C3943.61 1833.94 3924.33 1806.78 3905.85 1779.06C3899.74 1769.89 3893.51 1760.79 3887.6 1751.49C3884.1 1745.96 3880.86 1739.53 3876.55 1734.6Z" fill="url(#paint14_linear_26_2)"/>
</g>
</g>
<path d="M2711.5 4627C2725.5 4612.5 2790.5 3851 1857 3758C1110.2 3683.6 700.667 2934.67 657.5 2479.5C506.5 1466.5 -46.5 1344.5 -513.5 1409" stroke="#0E2D4A" stroke-opacity="0.78" stroke-width="14"/>
<g filter="url(#filter1_f_26_2)">
<path d="M2711 4627.18C2725 4612.68 2790 3851.18 1856.5 3758.18C1109.7 3683.78 700.167 2934.85 657 2479.68C506 1466.68 -46.9998 1344.68 -514 1409.18" stroke="#0E2D4A" stroke-opacity="0.78" stroke-width="14"/>
</g>
<path d="M2629.5 4722.18C2643.5 4707.68 2708.5 3946.19 1775 3853.19C1028.2 3778.79 618.667 3029.85 575.5 2574.68C424.5 1561.68 -128.5 1439.68 -595.5 1504.18" stroke="#0E2D4A" stroke-opacity="0.78" stroke-width="14"/>
<g filter="url(#filter2_f_26_2)">
<path d="M2629 4722.37C2643 4707.87 2708 3946.37 1774.5 3853.37C1027.7 3778.97 618.167 3030.04 575 2574.87C424 1561.87 -129 1439.87 -596 1504.37" stroke="#0E2D4A" stroke-opacity="0.78" stroke-width="14"/>
</g>
<path d="M2507.5 4801.18C2521.5 4786.68 2586.5 4025.19 1653 3932.19C906.2 3857.79 496.667 3108.85 453.5 2653.68C302.5 1640.68 -250.5 1518.68 -717.5 1583.18" stroke="#0E2D4A" stroke-opacity="0.78" stroke-width="14"/>
<g filter="url(#filter3_f_26_2)">
<path d="M2507 4801.37C2521 4786.87 2586 4025.37 1652.5 3932.37C905.7 3857.97 496.167 3109.04 453 2653.87C302 1640.87 -251 1518.87 -718 1583.37" stroke="#0E2D4A" stroke-opacity="0.78" stroke-width="14"/>
</g>
<path d="M2386.5 4880.18C2400.5 4865.68 2465.5 4104.19 1532 4011.19C785.2 3936.79 375.667 3187.85 332.5 2732.68C181.5 1719.68 -371.5 1597.68 -838.5 1662.18" stroke="#0E2D4A" stroke-opacity="0.78" stroke-width="14"/>
<g filter="url(#filter4_f_26_2)">
<path d="M2386 4880.37C2400 4865.87 2465 4104.37 1531.5 4011.37C784.7 3936.97 375.167 3188.04 332 2732.87C181 1719.87 -372 1597.87 -839 1662.37" stroke="#0E2D4A" stroke-opacity="0.78" stroke-width="14"/>
</g>
<path d="M2273.5 4954.18C2287.5 4939.68 2352.5 4178.19 1419 4085.19C672.2 4010.79 262.667 3261.85 219.5 2806.68C68.5 1793.68 -484.5 1671.68 -951.5 1736.18" stroke="#0E2D4A" stroke-opacity="0.78" stroke-width="14"/>
<g filter="url(#filter5_f_26_2)">
<path d="M2273 4954.37C2287 4939.87 2352 4178.37 1418.5 4085.37C671.7 4010.97 262.167 3262.04 219 2806.87C68.0002 1793.87 -485 1671.87 -952 1736.37" stroke="#0E2D4A" stroke-opacity="0.78" stroke-width="14"/>
</g>
<path d="M2138.5 5045.18C2152.5 5030.68 2217.5 4269.19 1284 4176.19C537.2 4101.79 127.667 3352.85 84.5 2897.68C-66.5 1884.68 -619.5 1762.68 -1086.5 1827.18" stroke="#0E2D4A" stroke-opacity="0.78" stroke-width="14"/>
<g filter="url(#filter6_f_26_2)">
<path d="M2138 5045.37C2152 5030.87 2217 4269.37 1283.5 4176.37C536.7 4101.97 127.167 3353.04 84.0002 2897.87C-66.9998 1884.87 -620 1762.87 -1087 1827.37" stroke="#0E2D4A" stroke-opacity="0.78" stroke-width="14"/>
</g>
<g filter="url(#filter7_d_26_2)">
<path d="M3821.5 -123C4432.5 1376 5349 958 5349 952C5349 946 6282 420 6718 686C7154 952 7703 1110 7997 985.5" stroke="#0E2D4A" stroke-opacity="0.81" stroke-width="14"/>
<g filter="url(#filter8_f_26_2)">
<path d="M3821 -123C4432 1376 5348.5 958 5348.5 952C5348.5 946 6281.5 420 6717.5 686C7153.5 952 7702.5 1110 7996.5 985.5" stroke="#0E2D4A" stroke-opacity="0.81" stroke-width="14"/>
</g>
</g>
<g filter="url(#filter9_d_26_2)">
<path d="M3846.5 -193C4457.5 1306 5374 888 5374 882C5374 876 6307 350 6743 616C7179 882 7728 1040 8022 915.5" stroke="#0E2D4A" stroke-opacity="0.81" stroke-width="14"/>
<g filter="url(#filter10_f_26_2)">
<path d="M3846 -193C4457 1306 5373.5 888 5373.5 882C5373.5 876 6306.5 350 6742.5 616C7178.5 882 7727.5 1040 8021.5 915.5" stroke="#0E2D4A" stroke-opacity="0.81" stroke-width="14"/>
</g>
</g>
<g filter="url(#filter11_d_26_2)">
<path d="M3885.5 -270C4496.5 1229 5413 811 5413 805C5413 799 6346 273 6782 539C7218 805 7767 963 8061 838.5" stroke="#0E2D4A" stroke-opacity="0.81" stroke-width="14"/>
<g filter="url(#filter12_f_26_2)">
<path d="M3885 -270C4496 1229 5412.5 811 5412.5 805C5412.5 799 6345.5 273 6781.5 539C7217.5 805 7766.5 963 8060.5 838.5" stroke="#0E2D4A" stroke-opacity="0.81" stroke-width="14"/>
</g>
</g>
<g filter="url(#filter13_d_26_2)">
<path d="M3913.5 -354C4524.5 1145 5441 727 5441 721C5441 715 6374 189 6810 455C7246 721 7795 879 8089 754.5" stroke="#0E2D4A" stroke-opacity="0.81" stroke-width="14"/>
<g filter="url(#filter14_f_26_2)">
<path d="M3913 -354C4524 1145 5440.5 727 5440.5 721C5440.5 715 6373.5 189 6809.5 455C7245.5 721 7794.5 879 8088.5 754.5" stroke="#0E2D4A" stroke-opacity="0.81" stroke-width="14"/>
</g>
</g>
<g filter="url(#filter15_d_26_2)">
<path d="M3913.5 -438C4524.5 1061 5441 643 5441 637C5441 631 6374 105 6810 371C7246 637 7795 795 8089 670.5" stroke="#0E2D4A" stroke-opacity="0.81" stroke-width="14"/>
<g filter="url(#filter16_f_26_2)">
<path d="M3913 -438C4524 1061 5440.5 643 5440.5 637C5440.5 631 6373.5 105 6809.5 371C7245.5 637 7794.5 795 8088.5 670.5" stroke="#0E2D4A" stroke-opacity="0.81" stroke-width="14"/>
</g>
</g>
<g filter="url(#filter17_d_26_2)">
<path d="M3913.5 -512C4524.5 987 5441 569 5441 563C5441 557 6374 31 6810 297C7246 563 7795 721 8089 596.5" stroke="#0E2D4A" stroke-opacity="0.81" stroke-width="14"/>
<g filter="url(#filter18_f_26_2)">
<path d="M3913 -512C4524 987 5440.5 569 5440.5 563C5440.5 557 6373.5 31 6809.5 297C7245.5 563 7794.5 721 8088.5 596.5" stroke="#0E2D4A" stroke-opacity="0.81" stroke-width="14"/>
</g>
</g>
<g filter="url(#filter19_d_26_2)">
<path d="M3945.5 -607C4556.5 892 5473 474 5473 468C5473 462 6406 -64 6842 202C7278 468 7827 626 8121 501.5" stroke="#0E2D4A" stroke-opacity="0.81" stroke-width="14"/>
<g filter="url(#filter20_f_26_2)">
<path d="M3945 -607C4556 892 5472.5 474 5472.5 468C5472.5 462 6405.5 -64 6841.5 202C7277.5 468 7826.5 626 8120.5 501.5" stroke="#0E2D4A" stroke-opacity="0.81" stroke-width="14"/>
</g>
</g>
<g filter="url(#filter21_d_26_2)">
<path d="M3973.5 -674C4584.5 825 5501 407 5501 401C5501 395 6434 -131 6870 135C7306 401 7855 559 8149 434.5" stroke="#0E2D4A" stroke-opacity="0.81" stroke-width="14"/>
<g filter="url(#filter22_f_26_2)">
<path d="M3973 -674C4584 825 5500.5 407 5500.5 401C5500.5 395 6433.5 -131 6869.5 135C7305.5 401 7854.5 559 8148.5 434.5" stroke="#0E2D4A" stroke-opacity="0.81" stroke-width="14"/>
</g>
</g>
<g filter="url(#filter23_d_26_2)">
<path d="M4029.5 -751C4640.5 748 5557 330 5557 324C5557 318 6490 -208 6926 58C7362 324 7911 482 8205 357.5" stroke="#0E2D4A" stroke-opacity="0.81" stroke-width="14"/>
<g filter="url(#filter24_f_26_2)">
<path d="M4029 -751C4640 748 5556.5 330 5556.5 324C5556.5 318 6489.5 -208 6925.5 58C7361.5 324 7910.5 482 8204.5 357.5" stroke="#0E2D4A" stroke-opacity="0.81" stroke-width="14"/>
</g>
</g>
<g filter="url(#filter25_d_26_2)">
<path d="M4054.5 -818C4665.5 681 5582 263 5582 257C5582 251 6515 -275 6951 -9C7387 257 7936 415 8230 290.5" stroke="#0E2D4A" stroke-opacity="0.81" stroke-width="14"/>
<g filter="url(#filter26_f_26_2)">
<path d="M4054 -818C4665 681 5581.5 263 5581.5 257C5581.5 251 6514.5 -275 6950.5 -9C7386.5 257 7935.5 415 8229.5 290.5" stroke="#0E2D4A" stroke-opacity="0.81" stroke-width="14"/>
</g>
</g>
<g filter="url(#filter27_d_26_2)">
<path d="M4082.5 -895C4693.5 604 5610 186 5610 180C5610 174 6543 -352 6979 -86C7415 180 7964 338 8258 213.5" stroke="#0E2D4A" stroke-opacity="0.81" stroke-width="14"/>
<g filter="url(#filter28_f_26_2)">
<path d="M4082 -895C4693 604 5609.5 186 5609.5 180C5609.5 174 6542.5 -352 6978.5 -86C7414.5 180 7963.5 338 8257.5 213.5" stroke="#0E2D4A" stroke-opacity="0.81" stroke-width="14"/>
</g>
</g>
<g filter="url(#filter29_d_26_2)">
<path d="M4083.5 -969C4694.5 530 5611 112 5611 106C5611 100 6544 -426 6980 -160C7416 106 7965 264 8259 139.5" stroke="#0E2D4A" stroke-opacity="0.81" stroke-width="14"/>
<g filter="url(#filter30_f_26_2)">
<path d="M4083 -969C4694 530 5610.5 112 5610.5 106C5610.5 100 6543.5 -426 6979.5 -160C7415.5 106 7964.5 264 8258.5 139.5" stroke="#0E2D4A" stroke-opacity="0.81" stroke-width="14"/>
</g>
</g>
<g filter="url(#filter31_d_26_2)">
<path d="M4104.5 -1014C4715.5 485 5632 67 5632 61C5632 55 6565 -471 7001 -205C7437 61 7986 219 8280 94.5" stroke="#0E2D4A" stroke-opacity="0.81" stroke-width="14"/>
<g filter="url(#filter32_f_26_2)">
<path d="M4104 -1014C4715 485 5631.5 67 5631.5 61C5631.5 55 6564.5 -471 7000.5 -205C7436.5 61 7985.5 219 8279.5 94.5" stroke="#0E2D4A" stroke-opacity="0.81" stroke-width="14"/>
</g>
</g>
<g filter="url(#filter33_d_26_2)">
<path d="M4139.5 -1067C4750.5 432 5667 14 5667 8C5667 2 6600 -524 7036 -258C7472 8 8021 166 8315 41.5" stroke="#0E2D4A" stroke-opacity="0.81" stroke-width="14"/>
<g filter="url(#filter34_f_26_2)">
<path d="M4139 -1067C4750 432 5666.5 14 5666.5 8C5666.5 2 6599.5 -524 7035.5 -258C7471.5 8 8020.5 166 8314.5 41.5" stroke="#0E2D4A" stroke-opacity="0.81" stroke-width="14"/>
</g>
</g>
<g filter="url(#filter35_d_26_2)">
<path d="M4160.5 -1109C4771.5 390 5688 -28 5688 -34C5688 -40 6621 -566 7057 -300C7493 -34 8042 124 8336 -0.5" stroke="#0E2D4A" stroke-opacity="0.81" stroke-width="14"/>
<g filter="url(#filter36_f_26_2)">
<path d="M4160 -1109C4771 390 5687.5 -28 5687.5 -34C5687.5 -40 6620.5 -566 7056.5 -300C7492.5 -34 8041.5 124 8335.5 -0.5" stroke="#0E2D4A" stroke-opacity="0.81" stroke-width="14"/>
</g>
</g>
<path d="M2008.5 5130.18C2022.5 5115.68 2087.5 4354.19 1154 4261.19C407.2 4186.79 -2.33331 3437.85 -45.5 2982.68C-196.5 1969.68 -749.5 1847.68 -1216.5 1912.18" stroke="#0E2D4A" stroke-opacity="0.78" stroke-width="14"/>
<g filter="url(#filter37_f_26_2)">
<path d="M2008 5130.37C2022 5115.87 2087 4354.37 1153.5 4261.37C406.7 4186.97 -2.83312 3438.04 -45.9998 2982.87C-197 1969.87 -750 1847.87 -1217 1912.37" stroke="#0E2D4A" stroke-opacity="0.78" stroke-width="14"/>
</g>
<path d="M1855.5 5181.18C1869.5 5166.68 1934.5 4405.19 1001 4312.19C254.2 4237.79 -155.333 3488.85 -198.5 3033.68C-349.5 2020.68 -902.5 1898.68 -1369.5 1963.18" stroke="#0E2D4A" stroke-opacity="0.78" stroke-width="14"/>
<g filter="url(#filter38_f_26_2)">
<path d="M1855 5181.37C1869 5166.87 1934 4405.37 1000.5 4312.37C253.7 4237.97 -155.833 3489.04 -199 3033.87C-350 2020.87 -903 1898.87 -1370 1963.37" stroke="#0E2D4A" stroke-opacity="0.78" stroke-width="14"/>
</g>
<path d="M1776.5 5283.18C1790.5 5268.68 1855.5 4507.19 922 4414.19C175.2 4339.79 -234.333 3590.85 -277.5 3135.68C-428.5 2122.68 -981.5 2000.68 -1448.5 2065.18" stroke="#0E2D4A" stroke-opacity="0.78" stroke-width="14"/>
<g filter="url(#filter39_f_26_2)">
<path d="M1776 5283.37C1790 5268.87 1855 4507.37 921.5 4414.37C174.7 4339.97 -234.833 3591.04 -278 3135.87C-429 2122.87 -982 2000.87 -1449 2065.37" stroke="#0E2D4A" stroke-opacity="0.78" stroke-width="14"/>
</g>
<path d="M1657.5 5402.18C1671.5 5387.68 1736.5 4626.19 803 4533.19C56.1999 4458.79 -353.333 3709.85 -396.5 3254.68C-547.5 2241.68 -1100.5 2119.68 -1567.5 2184.18" stroke="#0E2D4A" stroke-opacity="0.78" stroke-width="14"/>
<g filter="url(#filter40_f_26_2)">
<path d="M1657 5402.37C1671 5387.87 1736 4626.37 802.5 4533.37C55.7 4458.97 -353.833 3710.04 -397 3254.87C-548 2241.87 -1101 2119.87 -1568 2184.37" stroke="#0E2D4A" stroke-opacity="0.78" stroke-width="14"/>
</g>
</g>
<rect x="0.5" y="-0.5" width="7679" height="4319" transform="matrix(1 0 0 -1 0 4319)" stroke="black"/>
<defs>
<filter id="filter0_f_26_2" x="3219.9" y="1539.9" width="1240.2" height="1240.2" filterUnits="userSpaceOnUse" color-interpolation-filters="sRGB">
<feFlood flood-opacity="0" result="BackgroundImageFix"/>
<feBlend mode="normal" in="SourceGraphic" in2="BackgroundImageFix" result="shape"/>
<feGaussianBlur stdDeviation="54.05" result="effect1_foregroundBlur_26_2"/>
</filter>
<filter id="filter1_f_26_2" x="-568.058" y="1334.89" width="3345.57" height="3350.26" filterUnits="userSpaceOnUse" color-interpolation-filters="sRGB">
<feFlood flood-opacity="0" result="BackgroundImageFix"/>
<feBlend mode="normal" in="SourceGraphic" in2="BackgroundImageFix" result="shape"/>
<feGaussianBlur stdDeviation="26.55" result="effect1_foregroundBlur_26_2"/>
</filter>
<filter id="filter2_f_26_2" x="-650.058" y="1430.07" width="3345.57" height="3350.26" filterUnits="userSpaceOnUse" color-interpolation-filters="sRGB">
<feFlood flood-opacity="0" result="BackgroundImageFix"/>
<feBlend mode="normal" in="SourceGraphic" in2="BackgroundImageFix" result="shape"/>
<feGaussianBlur stdDeviation="26.55" result="effect1_foregroundBlur_26_2"/>
</filter>
<filter id="filter3_f_26_2" x="-772.058" y="1509.07" width="3345.57" height="3350.26" filterUnits="userSpaceOnUse" color-interpolation-filters="sRGB">
<feFlood flood-opacity="0" result="BackgroundImageFix"/>
<feBlend mode="normal" in="SourceGraphic" in2="BackgroundImageFix" result="shape"/>
<feGaussianBlur stdDeviation="26.55" result="effect1_foregroundBlur_26_2"/>
</filter>
<filter id="filter4_f_26_2" x="-893.058" y="1588.07" width="3345.57" height="3350.26" filterUnits="userSpaceOnUse" color-interpolation-filters="sRGB">
<feFlood flood-opacity="0" result="BackgroundImageFix"/>
<feBlend mode="normal" in="SourceGraphic" in2="BackgroundImageFix" result="shape"/>
<feGaussianBlur stdDeviation="26.55" result="effect1_foregroundBlur_26_2"/>
</filter>
<filter id="filter5_f_26_2" x="-1006.06" y="1662.07" width="3345.57" height="3350.26" filterUnits="userSpaceOnUse" color-interpolation-filters="sRGB">
<feFlood flood-opacity="0" result="BackgroundImageFix"/>
<feBlend mode="normal" in="SourceGraphic" in2="BackgroundImageFix" result="shape"/>
<feGaussianBlur stdDeviation="26.55" result="effect1_foregroundBlur_26_2"/>
</filter>
<filter id="filter6_f_26_2" x="-1141.06" y="1753.07" width="3345.57" height="3350.26" filterUnits="userSpaceOnUse" color-interpolation-filters="sRGB">
<feFlood flood-opacity="0" result="BackgroundImageFix"/>
<feBlend mode="normal" in="SourceGraphic" in2="BackgroundImageFix" result="shape"/>
<feGaussianBlur stdDeviation="26.55" result="effect1_foregroundBlur_26_2"/>
</filter>
<filter id="filter7_d_26_2" x="3810.52" y="-125.642" width="4193.21" height="1169.38" filterUnits="userSpaceOnUse" color-interpolation-filters="sRGB">
<feFlood flood-opacity="0" result="BackgroundImageFix"/>
<feColorMatrix in="SourceAlpha" type="matrix" values="0 0 0 0 0 0 0 0 0 0 0 0 0 0 0 0 0 0 127 0" result="hardAlpha"/>
<feOffset dy="4"/>
<feGaussianBlur stdDeviation="2"/>
<feComposite in2="hardAlpha" operator="out"/>
<feColorMatrix type="matrix" values="0 0 0 0 0 0 0 0 0 0 0 0 0 0 0 0 0 0 0.25 0"/>
<feBlend mode="normal" in2="BackgroundImageFix" result="effect1_dropShadow_26_2"/>
<feBlend mode="normal" in="SourceGraphic" in2="effect1_dropShadow_26_2" result="shape"/>
</filter>
<filter id="filter8_f_26_2" x="3687.42" y="-252.742" width="4438.91" height="1415.58" filterUnits="userSpaceOnUse" color-interpolation-filters="sRGB">
<feFlood flood-opacity="0" result="BackgroundImageFix"/>
<feBlend mode="normal" in="SourceGraphic" in2="BackgroundImageFix" result="shape"/>
<feGaussianBlur stdDeviation="63.55" result="effect1_foregroundBlur_26_2"/>
</filter>
<filter id="filter9_d_26_2" x="3835.52" y="-195.642" width="4193.21" height="1169.38" filterUnits="userSpaceOnUse" color-interpolation-filters="sRGB">
<feFlood flood-opacity="0" result="BackgroundImageFix"/>
<feColorMatrix in="SourceAlpha" type="matrix" values="0 0 0 0 0 0 0 0 0 0 0 0 0 0 0 0 0 0 127 0" result="hardAlpha"/>
<feOffset dy="4"/>
<feGaussianBlur stdDeviation="2"/>
<feComposite in2="hardAlpha" operator="out"/>
<feColorMatrix type="matrix" values="0 0 0 0 0 0 0 0 0 0 0 0 0 0 0 0 0 0 0.25 0"/>
<feBlend mode="normal" in2="BackgroundImageFix" result="effect1_dropShadow_26_2"/>
<feBlend mode="normal" in="SourceGraphic" in2="effect1_dropShadow_26_2" result="shape"/>
</filter>
<filter id="filter10_f_26_2" x="3712.42" y="-322.742" width="4438.91" height="1415.58" filterUnits="userSpaceOnUse" color-interpolation-filters="sRGB">
<feFlood flood-opacity="0" result="BackgroundImageFix"/>
<feBlend mode="normal" in="SourceGraphic" in2="BackgroundImageFix" result="shape"/>
<feGaussianBlur stdDeviation="63.55" result="effect1_foregroundBlur_26_2"/>
</filter>
<filter id="filter11_d_26_2" x="3874.52" y="-272.642" width="4193.21" height="1169.38" filterUnits="userSpaceOnUse" color-interpolation-filters="sRGB">
<feFlood flood-opacity="0" result="BackgroundImageFix"/>
<feColorMatrix in="SourceAlpha" type="matrix" values="0 0 0 0 0 0 0 0 0 0 0 0 0 0 0 0 0 0 127 0" result="hardAlpha"/>
<feOffset dy="4"/>
<feGaussianBlur stdDeviation="2"/>
<feComposite in2="hardAlpha" operator="out"/>
<feColorMatrix type="matrix" values="0 0 0 0 0 0 0 0 0 0 0 0 0 0 0 0 0 0 0.25 0"/>
<feBlend mode="normal" in2="BackgroundImageFix" result="effect1_dropShadow_26_2"/>
<feBlend mode="normal" in="SourceGraphic" in2="effect1_dropShadow_26_2" result="shape"/>
</filter>
<filter id="filter12_f_26_2" x="3751.42" y="-399.742" width="4438.91" height="1415.58" filterUnits="userSpaceOnUse" color-interpolation-filters="sRGB">
<feFlood flood-opacity="0" result="BackgroundImageFix"/>
<feBlend mode="normal" in="SourceGraphic" in2="BackgroundImageFix" result="shape"/>
<feGaussianBlur stdDeviation="63.55" result="effect1_foregroundBlur_26_2"/>
</filter>
<filter id="filter13_d_26_2" x="3902.52" y="-356.642" width="4193.21" height="1169.38" filterUnits="userSpaceOnUse" color-interpolation-filters="sRGB">
<feFlood flood-opacity="0" result="BackgroundImageFix"/>
<feColorMatrix in="SourceAlpha" type="matrix" values="0 0 0 0 0 0 0 0 0 0 0 0 0 0 0 0 0 0 127 0" result="hardAlpha"/>
<feOffset dy="4"/>
<feGaussianBlur stdDeviation="2"/>
<feComposite in2="hardAlpha" operator="out"/>
<feColorMatrix type="matrix" values="0 0 0 0 0 0 0 0 0 0 0 0 0 0 0 0 0 0 0.25 0"/>
<feBlend mode="normal" in2="BackgroundImageFix" result="effect1_dropShadow_26_2"/>
<feBlend mode="normal" in="SourceGraphic" in2="effect1_dropShadow_26_2" result="shape"/>
</filter>
<filter id="filter14_f_26_2" x="3779.42" y="-483.742" width="4438.91" height="1415.58" filterUnits="userSpaceOnUse" color-interpolation-filters="sRGB">
<feFlood flood-opacity="0" result="BackgroundImageFix"/>
<feBlend mode="normal" in="SourceGraphic" in2="BackgroundImageFix" result="shape"/>
<feGaussianBlur stdDeviation="63.55" result="effect1_foregroundBlur_26_2"/>
</filter>
<filter id="filter15_d_26_2" x="3902.52" y="-440.642" width="4193.21" height="1169.38" filterUnits="userSpaceOnUse" color-interpolation-filters="sRGB">
<feFlood flood-opacity="0" result="BackgroundImageFix"/>
<feColorMatrix in="SourceAlpha" type="matrix" values="0 0 0 0 0 0 0 0 0 0 0 0 0 0 0 0 0 0 127 0" result="hardAlpha"/>
<feOffset dy="4"/>
<feGaussianBlur stdDeviation="2"/>
<feComposite in2="hardAlpha" operator="out"/>
<feColorMatrix type="matrix" values="0 0 0 0 0 0 0 0 0 0 0 0 0 0 0 0 0 0 0.25 0"/>
<feBlend mode="normal" in2="BackgroundImageFix" result="effect1_dropShadow_26_2"/>
<feBlend mode="normal" in="SourceGraphic" in2="effect1_dropShadow_26_2" result="shape"/>
</filter>
<filter id="filter16_f_26_2" x="3779.42" y="-567.742" width="4438.91" height="1415.58" filterUnits="userSpaceOnUse" color-interpolation-filters="sRGB">
<feFlood flood-opacity="0" result="BackgroundImageFix"/>
<feBlend mode="normal" in="SourceGraphic" in2="BackgroundImageFix" result="shape"/>
<feGaussianBlur stdDeviation="63.55" result="effect1_foregroundBlur_26_2"/>
</filter>
<filter id="filter17_d_26_2" x="3902.52" y="-514.642" width="4193.21" height="1169.38" filterUnits="userSpaceOnUse" color-interpolation-filters="sRGB">
<feFlood flood-opacity="0" result="BackgroundImageFix"/>
<feColorMatrix in="SourceAlpha" type="matrix" values="0 0 0 0 0 0 0 0 0 0 0 0 0 0 0 0 0 0 127 0" result="hardAlpha"/>
<feOffset dy="4"/>
<feGaussianBlur stdDeviation="2"/>
<feComposite in2="hardAlpha" operator="out"/>
<feColorMatrix type="matrix" values="0 0 0 0 0 0 0 0 0 0 0 0 0 0 0 0 0 0 0.25 0"/>
<feBlend mode="normal" in2="BackgroundImageFix" result="effect1_dropShadow_26_2"/>
<feBlend mode="normal" in="SourceGraphic" in2="effect1_dropShadow_26_2" result="shape"/>
</filter>
<filter id="filter18_f_26_2" x="3779.42" y="-641.742" width="4438.91" height="1415.58" filterUnits="userSpaceOnUse" color-interpolation-filters="sRGB">
<feFlood flood-opacity="0" result="BackgroundImageFix"/>
<feBlend mode="normal" in="SourceGraphic" in2="BackgroundImageFix" result="shape"/>
<feGaussianBlur stdDeviation="63.55" result="effect1_foregroundBlur_26_2"/>
</filter>
<filter id="filter19_d_26_2" x="3934.52" y="-609.642" width="4193.21" height="1169.38" filterUnits="userSpaceOnUse" color-interpolation-filters="sRGB">
<feFlood flood-opacity="0" result="BackgroundImageFix"/>
<feColorMatrix in="SourceAlpha" type="matrix" values="0 0 0 0 0 0 0 0 0 0 0 0 0 0 0 0 0 0 127 0" result="hardAlpha"/>
<feOffset dy="4"/>
<feGaussianBlur stdDeviation="2"/>
<feComposite in2="hardAlpha" operator="out"/>
<feColorMatrix type="matrix" values="0 0 0 0 0 0 0 0 0 0 0 0 0 0 0 0 0 0 0.25 0"/>
<feBlend mode="normal" in2="BackgroundImageFix" result="effect1_dropShadow_26_2"/>
<feBlend mode="normal" in="SourceGraphic" in2="effect1_dropShadow_26_2" result="shape"/>
</filter>
<filter id="filter20_f_26_2" x="3811.42" y="-736.742" width="4438.91" height="1415.58" filterUnits="userSpaceOnUse" color-interpolation-filters="sRGB">
<feFlood flood-opacity="0" result="BackgroundImageFix"/>
<feBlend mode="normal" in="SourceGraphic" in2="BackgroundImageFix" result="shape"/>
<feGaussianBlur stdDeviation="63.55" result="effect1_foregroundBlur_26_2"/>
</filter>
<filter id="filter21_d_26_2" x="3962.52" y="-676.642" width="4193.21" height="1169.38" filterUnits="userSpaceOnUse" color-interpolation-filters="sRGB">
<feFlood flood-opacity="0" result="BackgroundImageFix"/>
<feColorMatrix in="SourceAlpha" type="matrix" values="0 0 0 0 0 0 0 0 0 0 0 0 0 0 0 0 0 0 127 0" result="hardAlpha"/>
<feOffset dy="4"/>
<feGaussianBlur stdDeviation="2"/>
<feComposite in2="hardAlpha" operator="out"/>
<feColorMatrix type="matrix" values="0 0 0 0 0 0 0 0 0 0 0 0 0 0 0 0 0 0 0.25 0"/>
<feBlend mode="normal" in2="BackgroundImageFix" result="effect1_dropShadow_26_2"/>
<feBlend mode="normal" in="SourceGraphic" in2="effect1_dropShadow_26_2" result="shape"/>
</filter>
<filter id="filter22_f_26_2" x="3839.42" y="-803.742" width="4438.91" height="1415.58" filterUnits="userSpaceOnUse" color-interpolation-filters="sRGB">
<feFlood flood-opacity="0" result="BackgroundImageFix"/>
<feBlend mode="normal" in="SourceGraphic" in2="BackgroundImageFix" result="shape"/>
<feGaussianBlur stdDeviation="63.55" result="effect1_foregroundBlur_26_2"/>
</filter>
<filter id="filter23_d_26_2" x="4018.52" y="-753.642" width="4193.21" height="1169.38" filterUnits="userSpaceOnUse" color-interpolation-filters="sRGB">
<feFlood flood-opacity="0" result="BackgroundImageFix"/>
<feColorMatrix in="SourceAlpha" type="matrix" values="0 0 0 0 0 0 0 0 0 0 0 0 0 0 0 0 0 0 127 0" result="hardAlpha"/>
<feOffset dy="4"/>
<feGaussianBlur stdDeviation="2"/>
<feComposite in2="hardAlpha" operator="out"/>
<feColorMatrix type="matrix" values="0 0 0 0 0 0 0 0 0 0 0 0 0 0 0 0 0 0 0.25 0"/>
<feBlend mode="normal" in2="BackgroundImageFix" result="effect1_dropShadow_26_2"/>
<feBlend mode="normal" in="SourceGraphic" in2="effect1_dropShadow_26_2" result="shape"/>
</filter>
<filter id="filter24_f_26_2" x="3895.42" y="-880.742" width="4438.91" height="1415.58" filterUnits="userSpaceOnUse" color-interpolation-filters="sRGB">
<feFlood flood-opacity="0" result="BackgroundImageFix"/>
<feBlend mode="normal" in="SourceGraphic" in2="BackgroundImageFix" result="shape"/>
<feGaussianBlur stdDeviation="63.55" result="effect1_foregroundBlur_26_2"/>
</filter>
<filter id="filter25_d_26_2" x="4043.52" y="-820.642" width="4193.21" height="1169.38" filterUnits="userSpaceOnUse" color-interpolation-filters="sRGB">
<feFlood flood-opacity="0" result="BackgroundImageFix"/>
<feColorMatrix in="SourceAlpha" type="matrix" values="0 0 0 0 0 0 0 0 0 0 0 0 0 0 0 0 0 0 127 0" result="hardAlpha"/>
<feOffset dy="4"/>
<feGaussianBlur stdDeviation="2"/>
<feComposite in2="hardAlpha" operator="out"/>
<feColorMatrix type="matrix" values="0 0 0 0 0 0 0 0 0 0 0 0 0 0 0 0 0 0 0.25 0"/>
<feBlend mode="normal" in2="BackgroundImageFix" result="effect1_dropShadow_26_2"/>
<feBlend mode="normal" in="SourceGraphic" in2="effect1_dropShadow_26_2" result="shape"/>
</filter>
<filter id="filter26_f_26_2" x="3920.42" y="-947.742" width="4438.91" height="1415.58" filterUnits="userSpaceOnUse" color-interpolation-filters="sRGB">
<feFlood flood-opacity="0" result="BackgroundImageFix"/>
<feBlend mode="normal" in="SourceGraphic" in2="BackgroundImageFix" result="shape"/>
<feGaussianBlur stdDeviation="63.55" result="effect1_foregroundBlur_26_2"/>
</filter>
<filter id="filter27_d_26_2" x="4071.52" y="-897.642" width="4193.21" height="1169.38" filterUnits="userSpaceOnUse" color-interpolation-filters="sRGB">
<feFlood flood-opacity="0" result="BackgroundImageFix"/>
<feColorMatrix in="SourceAlpha" type="matrix" values="0 0 0 0 0 0 0 0 0 0 0 0 0 0 0 0 0 0 127 0" result="hardAlpha"/>
<feOffset dy="4"/>
<feGaussianBlur stdDeviation="2"/>
<feComposite in2="hardAlpha" operator="out"/>
<feColorMatrix type="matrix" values="0 0 0 0 0 0 0 0 0 0 0 0 0 0 0 0 0 0 0.25 0"/>
<feBlend mode="normal" in2="BackgroundImageFix" result="effect1_dropShadow_26_2"/>
<feBlend mode="normal" in="SourceGraphic" in2="effect1_dropShadow_26_2" result="shape"/>
</filter>
<filter id="filter28_f_26_2" x="3948.42" y="-1024.74" width="4438.91" height="1415.58" filterUnits="userSpaceOnUse" color-interpolation-filters="sRGB">
<feFlood flood-opacity="0" result="BackgroundImageFix"/>
<feBlend mode="normal" in="SourceGraphic" in2="BackgroundImageFix" result="shape"/>
<feGaussianBlur stdDeviation="63.55" result="effect1_foregroundBlur_26_2"/>
</filter>
<filter id="filter29_d_26_2" x="4072.52" y="-971.642" width="4193.21" height="1169.38" filterUnits="userSpaceOnUse" color-interpolation-filters="sRGB">
<feFlood flood-opacity="0" result="BackgroundImageFix"/>
<feColorMatrix in="SourceAlpha" type="matrix" values="0 0 0 0 0 0 0 0 0 0 0 0 0 0 0 0 0 0 127 0" result="hardAlpha"/>
<feOffset dy="4"/>
<feGaussianBlur stdDeviation="2"/>
<feComposite in2="hardAlpha" operator="out"/>
<feColorMatrix type="matrix" values="0 0 0 0 0 0 0 0 0 0 0 0 0 0 0 0 0 0 0.25 0"/>
<feBlend mode="normal" in2="BackgroundImageFix" result="effect1_dropShadow_26_2"/>
<feBlend mode="normal" in="SourceGraphic" in2="effect1_dropShadow_26_2" result="shape"/>
</filter>
<filter id="filter30_f_26_2" x="3949.42" y="-1098.74" width="4438.91" height="1415.58" filterUnits="userSpaceOnUse" color-interpolation-filters="sRGB">
<feFlood flood-opacity="0" result="BackgroundImageFix"/>
<feBlend mode="normal" in="SourceGraphic" in2="BackgroundImageFix" result="shape"/>
<feGaussianBlur stdDeviation="63.55" result="effect1_foregroundBlur_26_2"/>
</filter>
<filter id="filter31_d_26_2" x="4093.52" y="-1016.64" width="4193.21" height="1169.38" filterUnits="userSpaceOnUse" color-interpolation-filters="sRGB">
<feFlood flood-opacity="0" result="BackgroundImageFix"/>
<feColorMatrix in="SourceAlpha" type="matrix" values="0 0 0 0 0 0 0 0 0 0 0 0 0 0 0 0 0 0 127 0" result="hardAlpha"/>
<feOffset dy="4"/>
<feGaussianBlur stdDeviation="2"/>
<feComposite in2="hardAlpha" operator="out"/>
<feColorMatrix type="matrix" values="0 0 0 0 0 0 0 0 0 0 0 0 0 0 0 0 0 0 0.25 0"/>
<feBlend mode="normal" in2="BackgroundImageFix" result="effect1_dropShadow_26_2"/>
<feBlend mode="normal" in="SourceGraphic" in2="effect1_dropShadow_26_2" result="shape"/>
</filter>
<filter id="filter32_f_26_2" x="3970.42" y="-1143.74" width="4438.91" height="1415.58" filterUnits="userSpaceOnUse" color-interpolation-filters="sRGB">
<feFlood flood-opacity="0" result="BackgroundImageFix"/>
<feBlend mode="normal" in="SourceGraphic" in2="BackgroundImageFix" result="shape"/>
<feGaussianBlur stdDeviation="63.55" result="effect1_foregroundBlur_26_2"/>
</filter>
<filter id="filter33_d_26_2" x="4128.52" y="-1069.64" width="4193.21" height="1169.38" filterUnits="userSpaceOnUse" color-interpolation-filters="sRGB">
<feFlood flood-opacity="0" result="BackgroundImageFix"/>
<feColorMatrix in="SourceAlpha" type="matrix" values="0 0 0 0 0 0 0 0 0 0 0 0 0 0 0 0 0 0 127 0" result="hardAlpha"/>
<feOffset dy="4"/>
<feGaussianBlur stdDeviation="2"/>
<feComposite in2="hardAlpha" operator="out"/>
<feColorMatrix type="matrix" values="0 0 0 0 0 0 0 0 0 0 0 0 0 0 0 0 0 0 0.25 0"/>
<feBlend mode="normal" in2="BackgroundImageFix" result="effect1_dropShadow_26_2"/>
<feBlend mode="normal" in="SourceGraphic" in2="effect1_dropShadow_26_2" result="shape"/>
</filter>
<filter id="filter34_f_26_2" x="4005.42" y="-1196.74" width="4438.91" height="1415.58" filterUnits="userSpaceOnUse" color-interpolation-filters="sRGB">
<feFlood flood-opacity="0" result="BackgroundImageFix"/>
<feBlend mode="normal" in="SourceGraphic" in2="BackgroundImageFix" result="shape"/>
<feGaussianBlur stdDeviation="63.55" result="effect1_foregroundBlur_26_2"/>
</filter>
<filter id="filter35_d_26_2" x="4149.52" y="-1111.64" width="4193.21" height="1169.38" filterUnits="userSpaceOnUse" color-interpolation-filters="sRGB">
<feFlood flood-opacity="0" result="BackgroundImageFix"/>
<feColorMatrix in="SourceAlpha" type="matrix" values="0 0 0 0 0 0 0 0 0 0 0 0 0 0 0 0 0 0 127 0" result="hardAlpha"/>
<feOffset dy="4"/>
<feGaussianBlur stdDeviation="2"/>
<feComposite in2="hardAlpha" operator="out"/>
<feColorMatrix type="matrix" values="0 0 0 0 0 0 0 0 0 0 0 0 0 0 0 0 0 0 0.25 0"/>
<feBlend mode="normal" in2="BackgroundImageFix" result="effect1_dropShadow_26_2"/>
<feBlend mode="normal" in="SourceGraphic" in2="effect1_dropShadow_26_2" result="shape"/>
</filter>
<filter id="filter36_f_26_2" x="4026.42" y="-1238.74" width="4438.91" height="1415.58" filterUnits="userSpaceOnUse" color-interpolation-filters="sRGB">
<feFlood flood-opacity="0" result="BackgroundImageFix"/>
<feBlend mode="normal" in="SourceGraphic" in2="BackgroundImageFix" result="shape"/>
<feGaussianBlur stdDeviation="63.55" result="effect1_foregroundBlur_26_2"/>
</filter>
<filter id="filter37_f_26_2" x="-1271.06" y="1838.07" width="3345.57" height="3350.26" filterUnits="userSpaceOnUse" color-interpolation-filters="sRGB">
<feFlood flood-opacity="0" result="BackgroundImageFix"/>
<feBlend mode="normal" in="SourceGraphic" in2="BackgroundImageFix" result="shape"/>
<feGaussianBlur stdDeviation="26.55" result="effect1_foregroundBlur_26_2"/>
</filter>
<filter id="filter38_f_26_2" x="-1424.06" y="1889.07" width="3345.57" height="3350.26" filterUnits="userSpaceOnUse" color-interpolation-filters="sRGB">
<feFlood flood-opacity="0" result="BackgroundImageFix"/>
<feBlend mode="normal" in="SourceGraphic" in2="BackgroundImageFix" result="shape"/>
<feGaussianBlur stdDeviation="26.55" result="effect1_foregroundBlur_26_2"/>
</filter>
<filter id="filter39_f_26_2" x="-1503.06" y="1991.07" width="3345.57" height="3350.26" filterUnits="userSpaceOnUse" color-interpolation-filters="sRGB">
<feFlood flood-opacity="0" result="BackgroundImageFix"/>
<feBlend mode="normal" in="SourceGraphic" in2="BackgroundImageFix" result="shape"/>
<feGaussianBlur stdDeviation="26.55" result="effect1_foregroundBlur_26_2"/>
</filter>
<filter id="filter40_f_26_2" x="-1622.06" y="2110.07" width="3345.57" height="3350.26" filterUnits="userSpaceOnUse" color-interpolation-filters="sRGB">
<feFlood flood-opacity="0" result="BackgroundImageFix"/>
<feBlend mode="normal" in="SourceGraphic" in2="BackgroundImageFix" result="shape"/>
<feGaussianBlur stdDeviation="26.55" result="effect1_foregroundBlur_26_2"/>
</filter>
<linearGradient id="paint0_linear_26_2" x1="1099.25" y1="2853" x2="1099.25" y2="1431" gradientUnits="userSpaceOnUse">
<stop stop-color="#005983" stop-opacity="0.22"/>
<stop offset="1" stop-color="#007CB6" stop-opacity="0.02"/>
</linearGradient>
<linearGradient id="paint1_linear_26_2" x1="1916.25" y1="3872" x2="1916.25" y2="2450" gradientUnits="userSpaceOnUse">
<stop stop-color="#3604A2" stop-opacity="0.08"/>
<stop offset="1" stop-color="#007CB6" stop-opacity="0.02"/>
</linearGradient>
<linearGradient id="paint2_linear_26_2" x1="168.25" y1="4622" x2="168.25" y2="3200" gradientUnits="userSpaceOnUse">
<stop stop-color="#005983" stop-opacity="0.15"/>
<stop offset="1" stop-color="#007CB6" stop-opacity="0.02"/>
</linearGradient>
<linearGradient id="paint3_linear_26_2" x1="3664.25" y1="3222" x2="3664.25" y2="4644" gradientUnits="userSpaceOnUse">
<stop stop-color="#005983" stop-opacity="0.05"/>
<stop offset="1" stop-color="#01A1D3" stop-opacity="0.03"/>
</linearGradient>
<linearGradient id="paint4_linear_26_2" x1="5314" y1="2539" x2="6252" y2="3941" gradientUnits="userSpaceOnUse">
<stop stop-color="#005983" stop-opacity="0.13"/>
<stop offset="0.986759" stop-color="#1B0089" stop-opacity="0.07"/>
</linearGradient>
<linearGradient id="paint5_linear_26_2" x1="1448.25" y1="1327" x2="1448.25" y2="-95.0003" gradientUnits="userSpaceOnUse">
<stop stop-color="#005983" stop-opacity="0.1"/>
<stop offset="1" stop-color="#01A1D3" stop-opacity="0.03"/>
</linearGradient>
<linearGradient id="paint6_linear_26_2" x1="3648.25" y1="1453" x2="3648.25" y2="2875" gradientUnits="userSpaceOnUse">
<stop stop-color="#005983" stop-opacity="0.1"/>
<stop offset="1" stop-color="#01A1D3" stop-opacity="0.03"/>
</linearGradient>
<linearGradient id="paint7_linear_26_2" x1="595.25" y1="1168" x2="595.25" y2="-254" gradientUnits="userSpaceOnUse">
<stop stop-color="#3604A2" stop-opacity="0.08"/>
<stop offset="1" stop-color="#007CB6" stop-opacity="0.02"/>
</linearGradient>
<linearGradient id="paint8_linear_26_2" x1="7596.25" y1="4297" x2="7596.25" y2="2875" gradientUnits="userSpaceOnUse">
<stop stop-color="#005983" stop-opacity="0.15"/>
<stop offset="1" stop-color="#007CB6" stop-opacity="0.02"/>
</linearGradient>
<linearGradient id="paint9_linear_26_2" x1="6582.25" y1="2437" x2="6582.25" y2="1015" gradientUnits="userSpaceOnUse">
<stop stop-color="#005983" stop-opacity="0.05"/>
<stop offset="1" stop-color="#01A1D3" stop-opacity="0.03"/>
</linearGradient>
<linearGradient id="paint10_linear_26_2" x1="7177.25" y1="577" x2="7177.25" y2="-845" gradientUnits="userSpaceOnUse">
<stop stop-color="#005983" stop-opacity="0.15"/>
<stop offset="1" stop-color="#007CB6" stop-opacity="0.02"/>
</linearGradient>
<linearGradient id="paint11_linear_26_2" x1="3122.25" y1="-407" x2="3122.25" y2="1015" gradientUnits="userSpaceOnUse">
<stop stop-color="#005983" stop-opacity="0.15"/>
<stop offset="1" stop-color="#007CB6" stop-opacity="0.02"/>
</linearGradient>
<linearGradient id="paint12_linear_26_2" x1="4743.25" y1="627" x2="4743.25" y2="2049" gradientUnits="userSpaceOnUse">
<stop stop-color="#3604A2" stop-opacity="0.18"/>
<stop offset="1" stop-color="#007CB6" stop-opacity="0.02"/>
</linearGradient>
<linearGradient id="paint13_linear_26_2" x1="3489.65" y1="2366.76" x2="4108.11" y2="2001.59" gradientUnits="userSpaceOnUse">
<stop stop-color="#009FF9"/>
<stop offset="1" stop-color="#00E7CD" stop-opacity="0.94902"/>
</linearGradient>
<linearGradient id="paint14_linear_26_2" x1="3489.65" y1="2366.76" x2="4108.11" y2="2001.59" gradientUnits="userSpaceOnUse">
<stop stop-color="#009FF9"/>
<stop offset="1" stop-color="#00E7CD" stop-opacity="0.94902"/>
</linearGradient>
<clipPath id="clip0_26_2">
<rect width="7680" height="4320" transform="matrix(1 0 0 -1 0 4320)" fill="white"/>
</clipPath>
<clipPath id="clip1_26_2">
<rect width="1024" height="1024" fill="white" transform="translate(3328 1648)"/>
</clipPath>
</defs>
</svg>
